<?xml version="1.0"?>
<svg xmlns="http://www.w3.org/2000/svg" xmlns:xlink="http://www.w3.org/1999/xlink" xmlns:svgjs="http://svgjs.com/svgjs" version="1.1" width="512" height="512" x="0" y="0" viewBox="0 0 128 128" style="enable-background:new 0 0 512 512" xml:space="preserve" class=""><g><linearGradient xmlns="http://www.w3.org/2000/svg" id="a" gradientUnits="userSpaceOnUse" x1="110.397" x2="13.513" y1="126.398" y2="29.513"><stop stop-opacity="1" stop-color="#f44088" offset="0"/><stop stop-opacity="1" stop-color="#01a4cd" offset="1"/></linearGradient><path xmlns="http://www.w3.org/2000/svg" d="m77.37 117.32a1.75 1.75 0 0 1 -1.75 1.75h-6.45a1.75 1.75 0 0 1 -1.749-1.7 3.423 3.423 0 0 0 -6.842.006 1.75 1.75 0 0 1 -1.749 1.693h-7.9a1.75 1.75 0 0 1 0-3.5h6.414a6.929 6.929 0 0 1 13.31 0h4.966a1.75 1.75 0 0 1 1.75 1.751zm41.38-71.45v71.45a1.75 1.75 0 0 1 -1.75 1.75h-32.06a1.75 1.75 0 0 1 0-3.5h30.31v-67.95h-3.14v59.33.024a1.74 1.74 0 0 1 -1.746 1.731c-.009 0-.018 0-.027 0h-46.247-.025-.065-.013c-.016 0-.031 0-.047 0h-46.279a1.74 1.74 0 0 1 -1.771-1.8v-59.285h-3.14v67.95h5.83a1.75 1.75 0 0 1 0 3.5h-7.58a1.75 1.75 0 0 1 -1.75-1.75v-71.45a1.75 1.75 0 0 1 1.75-1.75h5.532c1.062-1.819 3.9-4.984 11.038-6.07v-21.87a1.75 1.75 0 0 1 2.147-1.7 54.048 54.048 0 0 1 7.983 2.52v-6.318a1.751 1.751 0 0 1 2.147-1.7c21.482 4.985 25.272 23.742 25.853 32.489a47.967 47.967 0 0 1 38.579-13.438 1.749 1.749 0 0 1 1.563 1.74v9.227a14.371 14.371 0 0 1 5.523 5.116h5.635a1.75 1.75 0 0 1 1.75 1.754zm-12.909-2.724v51.99a1.75 1.75 0 0 1 -1.817 1.749 49.948 49.948 0 0 0 -9.248.568 42.847 42.847 0 0 1 13.834 6.132v-57.265a10.626 10.626 0 0 0 -2.769-3.174zm-34.685 62.054h33.416c-7.984-4.665-15.254-5.637-21.317-4.952a98.364 98.364 0 0 0 -12.099 4.952zm-5.406-58.694v56.847a38.088 38.088 0 0 1 16.637-6.54 64.27 64.27 0 0 1 19.913-3.461h.041v-61.98c-20.994-1.518-34.241 12.443-36.591 15.134zm-24.55 27.236c10.089 3.17 17.128 9.242 21.046 18.131v-46c0-.049 0-.1.006-.148.09-1.085 1.864-25.959-21.052-32.767zm-10.13 6.458c14.425 3.557 24.1 13.149 30.337 20.665-2.55-12.666-9.926-20.594-22.43-24.134a1.75 1.75 0 0 1 -1.277-1.686v-54.245a50.085 50.085 0 0 0 -6.634-2.37zm-11.68-34.026v57.177c5.812-4.058 19.623-11.2 36.781-3.184-6.123-6.755-14.943-14.226-27.219-16.867a1.751 1.751 0 0 1 -1.382-1.71v-39.99c-6.25 1.075-7.864 3.848-8.18 4.574zm3.516 59.026h35.3c-15.915-9.3-29.006-3.937-35.3 0zm18.7 10.37h-13.706a1.75 1.75 0 0 0 0 3.5h13.71a1.75 1.75 0 1 0 0-3.5z" fill="url(#a)" data-original="url(#a)" style=""/></g></svg>
