<svg id="Capa_1" enable-background="new 0 0 512 512" height="512" viewBox="0 0 512 512" width="512" xmlns="http://www.w3.org/2000/svg"><g><path d="m41.9 438c0 5.522 4.477 10 10 10h200.48l26.617 26.617v27.383c0 5.522 4.477 10 10 10h145.771c5.523 0 10-4.478 10-10v-23.234l16.359-31.329c5.87-11.242 8.973-23.889 8.973-36.571v-48.316c0-16.469-15.043-29.931-31.051-29.931-6.214 0-11.948 1.675-16.752 4.592-5.628-7.937-14.891-13.138-25.35-13.158-3.89 0-7.611.73-11.046 2.042v-316.095c0-5.522-4.477-10-10-10h-324c-5.523 0-10 4.478-10 10v170.785c0 5.522 4.477 10 10 10s10-4.478 10-10v-160.785h304v299.129c-7.057-2.71-15.045-2.717-22.108-.018v-53.115c0-16.913-14.114-31.056-31.052-31.056-16.892 0-31.05 14.142-31.05 31.056v116.491l-14.122-14.122c-12.924-12.924-34.486-12.926-47.412 0-12.897 12.897-12.804 34.495 0 47.412l12.223 12.223h-170.48v-159.301c0-5.522-4.477-10-10-10s-10 4.478-10 10zm355.027-93.948c6.001.012 11.071 5.072 11.071 11.051v7.446c0 5.522 4.477 10 10 10s10-4.478 10-10c0-6.52 5.56-9.931 11.051-9.931 6.094 0 11.051 4.958 11.051 11.052v47.195c0 9.473-2.317 18.918-6.701 27.313l-17.495 33.504c-.746 1.429-1.136 3.017-1.136 4.629v15.689h-125.77v-21.524c0-2.652-1.054-5.195-2.929-7.071l-32.419-32.419c-.018-.018-.031-.039-.048-.056l-29.273-29.273c-5.225-5.265-5.28-13.896-.022-19.148 5.202-5.208 13.92-5.2 19.124.004l15.66 15.66c5.412 5.411 13.74 7.08 20.812 4.14 7.074-2.941 11.79-9.976 11.79-17.641v-118.672c0-6.008 5.043-11.056 11.051-11.056 6.017 0 11.049 5.075 11.049 11.056v82.13c0 .013.002.026.002.039v13.259c0 5.522 4.477 10 10 10s10-4.478 10-10v-13.296c0-6.094 4.958-11.051 11.031-11.052 5.935.013 11.067 5.105 11.067 11.05l.004 13.298c0 5.522 4.477 10 10 10s10-4.478 10-10v-6.325c-.002-6.094 4.956-11.051 11.03-11.051z"/><path d="m330.561 208.349c0-5.522-4.477-10-10-10h-85.846c-5.523 0-10 4.478-10 10s4.477 10 10 10h85.846c5.522 0 10-4.478 10-10z"/><path d="m253.534 250.675h-18.82c-5.523 0-10 4.478-10 10s4.477 10 10 10h18.82c5.523 0 10-4.478 10-10s-4.477-10-10-10z"/><path d="m253.534 303h-18.82c-5.523 0-10 4.478-10 10s4.477 10 10 10h18.82c5.523 0 10-4.478 10-10s-4.477-10-10-10z"/><path d="m111.56 74.821h209.001c5.523 0 10-4.478 10-10s-4.477-10-10-10h-209.001c-5.523 0-10 4.478-10 10s4.477 10 10 10z"/><path d="m101.56 366c0 5.522 4.477 10 10 10h75.465c5.523 0 10-4.478 10-10v-157.651c0-5.522-4.477-10-10-10h-75.465c-5.523 0-10 4.478-10 10zm20-147.651h55.465v137.651h-55.465z"/><path d="m101.56 159.194c0 5.522 4.477 10 10 10h209.001c5.523 0 10-4.478 10-10v-47.983c0-5.522-4.477-10-10-10h-209.001c-5.523 0-10 4.478-10 10zm20-37.983h189.001v27.983h-189.001z"/><path d="m43.59 230.68c2.981 4.554 9.357 5.779 13.86 2.771 4.541-3.034 5.77-9.333 2.76-13.87-3.014-4.544-9.334-5.763-13.86-2.761-4.541 3.012-5.773 9.338-2.76 13.86z"/></g></svg>