<?xml version="1.0"?>
<svg xmlns="http://www.w3.org/2000/svg" xmlns:xlink="http://www.w3.org/1999/xlink" version="1.1" id="Capa_1" x="0px" y="0px" viewBox="0 0 512 512" style="enable-background:new 0 0 512 512;" xml:space="preserve" width="512px" height="512px" class=""><g><g>
	<g>
		<g>
			<path d="M246.857,318.079v-43.793h-33.732C221.779,297.451,234.111,312.968,246.857,318.079z" data-original="#000000" class="active-path" data-old_color="#000000" fill="#999999"/>
			<path d="M207.511,256h39.347v-45.714h-45.487C201.832,225.695,203.89,241.015,207.511,256z" data-original="#000000" class="active-path" data-old_color="#000000" fill="#999999"/>
			<path d="M162.509,274.286c12.992,16.593,30.147,29.448,49.72,37.257c-7.967-11.418-14.151-23.98-18.342-37.257H162.509z" data-original="#000000" class="active-path" data-old_color="#000000" fill="#999999"/>
			<path d="M201.371,192h45.487v-45.714h-39.347C203.89,161.271,201.832,176.591,201.371,192z" data-original="#000000" class="active-path" data-old_color="#000000" fill="#999999"/>
			<path d="M183.095,210.286h-45.489c1.203,15.967,5.646,31.521,13.059,45.714h38.102     C185.444,240.974,183.545,225.668,183.095,210.286z" data-original="#000000" class="active-path" data-old_color="#000000" fill="#999999"/>
			<path d="M54.857,466.286c0,25.247,20.467,45.714,45.714,45.714h338.286v-18.286H137.143c-5.049,0-9.143-4.093-9.143-9.143     c0-5.049,4.093-9.143,9.143-9.143h301.714v-18.286H137.143c-5.049,0-9.143-4.093-9.143-9.143c0-5.049,4.093-9.143,9.143-9.143     h301.714v-18.286H100.571C75.324,420.571,54.857,441.038,54.857,466.286z M100.571,493.714h-9.143     c-5.049,0-9.143-4.093-9.143-9.143c0-5.049,4.093-9.143,9.143-9.143h9.143c5.049,0,9.143,4.093,9.143,9.143     C109.714,489.621,105.621,493.714,100.571,493.714z M109.714,448c0,5.049-4.093,9.143-9.143,9.143h-9.143     c-5.049,0-9.143-4.093-9.143-9.143c0-5.049,4.093-9.143,9.143-9.143h9.143C105.621,438.857,109.714,442.951,109.714,448z" data-original="#000000" class="active-path" data-old_color="#000000" fill="#999999"/>
			<path d="M212.229,90.743c-19.573,7.809-36.729,20.664-49.72,37.257h31.378C198.078,114.723,204.263,102.161,212.229,90.743z" data-original="#000000" class="active-path" data-old_color="#000000" fill="#999999"/>
			<path d="M188.767,146.286h-38.102c-7.413,14.193-11.856,29.747-13.059,45.714h45.489     C183.545,176.617,185.444,161.312,188.767,146.286z" data-original="#000000" class="active-path" data-old_color="#000000" fill="#999999"/>
			<path d="M213.126,128h33.732V84.207C234.111,89.318,221.779,104.835,213.126,128z" data-original="#000000" class="active-path" data-old_color="#000000" fill="#999999"/>
			<path d="M265.143,84.207V128h33.732C290.221,104.835,277.889,89.318,265.143,84.207z" data-original="#000000" class="active-path" data-old_color="#000000" fill="#999999"/>
			<path d="M299.771,311.543c19.573-7.809,36.729-20.664,49.72-37.257h-31.378C313.922,287.563,307.737,300.125,299.771,311.543z" data-original="#000000" class="active-path" data-old_color="#000000" fill="#999999"/>
			<path d="M323.233,256h38.102c7.413-14.193,11.856-29.747,13.059-45.714h-45.489C328.455,225.668,326.556,240.974,323.233,256z" data-original="#000000" class="active-path" data-old_color="#000000" fill="#999999"/>
			<path d="M323.233,146.286c3.323,15.026,5.222,30.332,5.671,45.714h45.489c-1.203-15.967-5.646-31.521-13.059-45.714H323.233z" data-original="#000000" class="active-path" data-old_color="#000000" fill="#999999"/>
			<path d="M448,0H100.571C75.328,0.009,54.866,20.471,54.857,45.714v375.863c12.006-12.343,28.496-19.301,45.714-19.291H448     c5.043-0.015,9.128-4.1,9.143-9.143v-384C457.128,4.1,453.043,0.015,448,0z M375.223,268.617     c-0.107,0.222-0.229,0.436-0.366,0.64c-24.351,42.681-69.718,69.029-118.857,69.029s-94.506-26.347-118.857-69.029     c-0.137-0.204-0.259-0.418-0.366-0.64c-23.894-41.81-23.894-93.139,0-134.949c0.106-0.222,0.229-0.436,0.366-0.64     C161.494,90.348,206.861,64,256,64s94.506,26.347,118.857,69.029c0.137,0.204,0.259,0.418,0.366,0.64     C399.116,175.479,399.116,226.807,375.223,268.617z" data-original="#000000" class="active-path" data-old_color="#000000" fill="#999999"/>
			<path d="M304.489,146.286h-39.347V192h45.487C310.168,176.591,308.11,161.271,304.489,146.286z" data-original="#000000" class="active-path" data-old_color="#000000" fill="#999999"/>
			<path d="M349.491,128c-12.992-16.593-30.147-29.448-49.72-37.257c7.967,11.418,14.151,23.98,18.342,37.257H349.491z" data-original="#000000" class="active-path" data-old_color="#000000" fill="#999999"/>
			<path d="M310.629,210.286h-45.487V256h39.347C308.11,241.015,310.168,225.695,310.629,210.286z" data-original="#000000" class="active-path" data-old_color="#000000" fill="#999999"/>
			<path d="M265.143,318.079c12.746-5.111,25.078-20.628,33.732-43.793h-33.732V318.079z" data-original="#000000" class="active-path" data-old_color="#000000" fill="#999999"/>
		</g>
	</g>
</g></g> </svg>
