<?xml version="1.0" encoding="iso-8859-1"?>
<!-- Generator: Adobe Illustrator 16.0.0, SVG Export Plug-In . SVG Version: 6.00 Build 0)  -->
<!DOCTYPE svg PUBLIC "-//W3C//DTD SVG 1.1//EN" "http://www.w3.org/Graphics/SVG/1.1/DTD/svg11.dtd">
<svg version="1.1" id="Capa_1" xmlns="http://www.w3.org/2000/svg" xmlns:xlink="http://www.w3.org/1999/xlink" x="0px" y="0px"
	 width="50px" height="50px" viewBox="0 0 50 50" style="enable-background:new 0 0 50 50;" xml:space="preserve">
<g>
	<g>
		<path d="M11.559,17.627c2.444,0,4.429-2.832,4.429-5.28c0-2.442-1.984-4.426-4.429-4.426c-2.445,0-4.43,1.983-4.43,4.426
			C7.128,14.795,9.113,17.627,11.559,17.627z"/>
		<path d="M47.198,13.476H36.339v-2.101c0-0.58-0.47-1.051-1.051-1.051c-0.582,0-1.05,0.471-1.05,1.051v2.101h-10.86
			c-1.543,0-2.801,1.257-2.801,2.803v3.69l-1.457-0.487c-0.383-0.139-3.783-1.319-6.913-1.473l-0.417,0.831h-0.009l1.18,9.189
			l-1.403,2.443l-1.4-2.443l1.178-9.189h-0.011l-0.417-0.834c-3.248,0.162-6.793,1.433-6.952,1.488
			c-0.057,0.023-0.095,0.066-0.149,0.092c-0.113,0.056-0.221,0.115-0.32,0.196c-0.084,0.067-0.156,0.134-0.226,0.214
			c-0.076,0.086-0.143,0.175-0.201,0.275c-0.06,0.1-0.103,0.204-0.141,0.317c-0.019,0.061-0.061,0.11-0.078,0.175l-2.8,12.605
			c-0.208,0.944,0.386,1.88,1.329,2.092c0.129,0.029,0.256,0.042,0.382,0.042c0.803,0,1.527-0.559,1.708-1.368l2.587-11.639
			c0.179-0.056,0.385-0.116,0.606-0.181v11.956l-0.629,7.808h4.219l0.467-5.804c0.259,0.119,0.544,0.183,0.847,0.183
			c0.3,0,0.588-0.063,0.85-0.183l0.466,5.804h4.217l-0.629-7.808V22.314c0.89,0.257,1.491,0.467,1.507,0.476
			c0.007,0.002,0.013,0.002,0.022,0.002c0.005,0.004,0.011,0.004,0.02,0.008l2.567,0.857v9.435c0,1.543,1.257,2.798,2.801,2.798
			h5.102l-1.658,6.188H29l1.657-6.188h3.581v6.188h2.101V35.89h3.582l1.658,6.188h2.175l-1.656-6.188h5.101
			c1.544,0,2.802-1.255,2.802-2.798V16.277C50,14.731,48.742,13.476,47.198,13.476z M48.601,33.092c0,0.771-0.63,1.399-1.402,1.399
			h-23.82c-0.771,0-1.4-0.631-1.4-1.399v-8.968l4.438,1.481c0.187,0.063,0.371,0.088,0.555,0.088c0.732,0,1.418-0.463,1.663-1.198
			c0.04-0.12,0.031-0.246,0.042-0.371l10.529-4.867c0.175-0.08,0.252-0.295,0.17-0.467c-0.08-0.174-0.29-0.255-0.466-0.168
			l-10.307,4.769c-0.171-0.503-0.538-0.929-1.076-1.107l-5.547-1.853v-4.153c0-0.771,0.63-1.398,1.4-1.398h23.819
			c0.771,0,1.402,0.627,1.402,1.398V33.092z"/>
	</g>
</g>
<g>
</g>
<g>
</g>
<g>
</g>
<g>
</g>
<g>
</g>
<g>
</g>
<g>
</g>
<g>
</g>
<g>
</g>
<g>
</g>
<g>
</g>
<g>
</g>
<g>
</g>
<g>
</g>
<g>
</g>
</svg>
