<?xml version="1.0"?>
<svg xmlns="http://www.w3.org/2000/svg" xmlns:xlink="http://www.w3.org/1999/xlink" version="1.1" id="Layer_1" x="0px" y="0px" viewBox="0 0 100 100" enable-background="new 0 0 100 100" xml:space="preserve" width="512px" height="512px" class=""><g><g>
	<circle fill="#45B39C" cx="50" cy="50" r="48" data-original="#45B39C" class="active-path" style="fill:#01A4CD" data-old_color="#45B39C"/>
	<path opacity="0.1" d="M98,49.9999771c0-0.5783691-0.0233154-1.151001-0.0435791-1.7244873L77.5,27.819191l-10.0700073-2.6600342   l-10.0800171-2.6600342l-2.4499512,9.3100586L50.2000122,27.10923l-2.3099976,0.8499756l-1.4500122-1.4400635l-0.1400146-0.1499023   H46.289978c-0.3399658-0.3400879-0.8099976-0.6501465-1.2999878-0.8400879   c-0.0299683-0.0200195-0.0700073-0.0300293-0.0999756-0.0400391c-0.0900269-0.0299072-0.1700439-0.0599365-0.2600098-0.0799561   c-0.0300293-0.0100098-0.0700073-0.0299072-0.1099854-0.039917c-0.0100098,0-0.0300293,0.0100098-0.0400391,0.0100098   c-0.4099731-0.0800781-0.7999878-0.0700684-1.0999756,0.1098633c-1.5,0.9100342-2.1199951,2.5-2.3699951,3.6800537   c-0.1799927-0.0100098-0.3699951,0.0100098-0.5599976,0.0799561c-0.1900024,0.0700684-0.3500366,0.1700439-0.4800415,0.3000488   c-0.9599609-0.7299805-2.4599609-1.5400391-4.1899414-1.2600098c-0.3500366,0.0600586-0.6500244,0.3000488-0.9100342,0.6300049   c-0.0100098,0.0100098-0.0200195,0.0100098-0.0299683,0.0200195c-0.0300293,0.0299072-0.0400391,0.0699463-0.0700073,0.0999756   c-0.0500488,0.0800781-0.0900269,0.1500244-0.1400146,0.2299805c-0.0200195,0.0300293-0.039978,0.0600586-0.0499878,0.0900879   c-0.25,0.4699707-0.4000244,1.0100098-0.4400024,1.4899902c0,0,0,0.0100098-0.0100098,0.0100098v0.1999512   c0,0.1599121,0.0100098,0.3100586,0.039978,0.4499512c0.0300293,0.0900879,0.0599976,0.1800537,0.1000366,0.25l0.1999512,0.2099609   L34.5,31.9891129l0.6599731,0.6600342l-0.25,0.0999756l-3.9699707-3.9699707h-2.0900269l-0.3899536-0.3898926h-4.7000122   c-0.7000122,0-1.2600098,0.5699463-1.2600098,1.2598877c0,0.4400635,0.2199707,0.8199463,0.5499878,1.0500488l8.5100098,8.5   l5.0900269,21.9799805c-1.4800415,0.4500732-2.5200195,1.8099365-2.5200195,3.4200439v0.1099854   c0,1.0599365,0.460022,2.0098877,1.2000122,2.6700439l4.289978,4.289917   c-0.289978,0.5499268-0.460022,1.1800537-0.460022,1.8499756c0,1.0500488,0.4100342,2.0100098,1.0800171,2.7199707   l0.0900269,0.0900879l20.4467773,20.44104C82.0946655,91.8772964,98,72.8024673,98,49.9999771z" data-original="#000000"/>
	<g>
		<g>
			
				<rect x="46.8107796" y="30.6212788" transform="matrix(0.2553014 -0.9668615 0.9668615 0.2553014 9.4600248 83.9425888)" fill="#FCD462" width="24.8233166" height="10.4178381" data-original="#FCD462"/>
			
				<rect x="56.8833542" y="33.2809906" transform="matrix(0.2553014 -0.9668615 0.9668615 0.2553014 14.3895149 95.6620407)" fill="#F6C358" width="24.8233166" height="10.4177752" data-original="#F6C358"/>
			<polygon fill="#DC8744" points="71.1626053,51.8200989 51.0174217,46.5007286 62.3180389,44.5097084    " data-original="#DC8744"/>
			<g>
				
					<ellipse transform="matrix(0.2553014 -0.9668615 0.9668615 0.2553014 21.2225456 79.5371857)" fill="#DC8744" cx="62.2438698" cy="25.9917011" rx="0.6914368" ry="0.6914368" data-original="#DC8744"/>
				
					<ellipse transform="matrix(0.2553014 -0.9668615 0.9668615 0.2553014 25.7644844 90.3352661)" fill="#DC8744" cx="71.5245514" cy="28.4422817" rx="0.6914368" ry="0.6914368" data-original="#DC8744"/>
			</g>
			<g>
				<path fill="#DC8744" d="M64.6955719,35.5050507c-2.7993736-0.7391777-4.443367-3.7390957-3.664917-6.6871967      l0.8258247-3.1275101l0.8727531,0.2304516l-0.8258247,3.1275101c-0.6514091,2.4669781,0.7043648,4.9718552,3.0226173,5.583992      s4.733902-0.8968849,5.3853073-3.3638649l0.8258286-3.1275101l0.8727493,0.2304516l-0.8258209,3.1275101      C70.4056396,34.4469872,67.4949493,36.2442322,64.6955719,35.5050507z" data-original="#DC8744"/>
			</g>
			<g>
				<path fill="#FFFFFF" d="M64.8122635,35.0631332c-2.7993774-0.7391777-4.4753838-3.617857-3.7362022-6.4172306      l0.7804184-2.9555588l0.8727531,0.2304516l-0.7804184,2.9555588c-0.6120834,2.3180389,0.7756462,4.701889,3.093895,5.3140259      c2.3182526,0.6121407,4.7019501-0.7758598,5.3140259-3.0938988l0.780426-2.9555588l0.8727493,0.2304516l-0.7804184,2.9555588      C70.4903107,34.1263084,67.6116333,35.8023148,64.8122635,35.0631332z" data-original="#FFFFFF" class=""/>
			</g>
		</g>
		<g>
			<g>
				<g>
					<path fill="#FCD462" d="M46.6888504,26.8912907c-0.4452972-0.9001808-2.3158836-2.0021172-3.3103981-1.4002552       c-2.5989265,1.5728436-2.5461807,5.1980057-2.5461807,5.1980057s1.9920387-1.3413563,3.4396439-2.774538       C44.2719154,27.9145031,45.9763412,26.1288166,46.6888504,26.8912907z" data-original="#FCD462"/>
					<path fill="#44C4A1" d="M45.765358,26.4749374c-0.7596359,0.2598839-1.5411072,1.0546665-1.6917152,1.2127533       c-0.9684105,0.9531269-2.2952843,2.044508-2.9961815,2.5607395c0.0940781-0.7459145,0.5539932-3.3316383,2.4919624-4.5007725       c0.019146-0.0115719,0.0420685-0.0213261,0.0664101-0.0316811c0.0266647-0.0113754,0.0543251-0.0231609,0.0821953-0.0392513       c0.2137375-0.1233959,0.9126472-0.1754436,1.2961617-0.1484413c-0.1642075-0.066349-0.3305092-0.1192379-0.4946899-0.1552467       c-0.3455048,0.0186119-0.7129021,0.0721226-0.879818,0.1684399c-0.0209961,0.0120926-0.0432663,0.0214005-0.0652695,0.0307732       c-0.0282249,0.0120316-0.0574417,0.0244713-0.0860329,0.0417213c-2.2145805,1.3360195-2.555027,4.4447231-2.5865517,4.7948189       l-0.0152168,0.1687679l0.1388588-0.0984898c0.6528397-0.4629707,2.1136971-1.6520615,3.1633339-2.685482       c0.144783-0.1519127,0.9068031-0.9213028,1.6272774-1.1708565c0.2273331-0.0780277,0.4645309-0.0944042,0.6192093-0.1026039       c-0.0424271-0.0495014-0.0875053-0.0988617-0.1360168-0.147747       C46.1463623,26.3846455,45.9548073,26.4098816,45.765358,26.4749374z" data-original="#44C4A1"/>
					<path fill="#F6C358" d="M44.2719154,27.9145031c-1.4476051,1.4331818-3.4396439,2.774538-3.4396439,2.774538       l4.5776749-1.9427776c0,0,1.5033417-0.7972164,1.3672562-1.5974541       c-0.0140648-0.0826626-0.0446472-0.1691628-0.0883522-0.2575188       C45.9763412,26.1288166,44.2719154,27.9145031,44.2719154,27.9145031z" data-original="#F6C358"/>
				</g>
				<g>
					<path fill="#FCD462" d="M34.1737862,31.5052376c-0.2455864-0.9738083,0.4620628-3.026268,1.6092567-3.2139893       c2.9979362-0.4905624,5.3109627,2.3013,5.3109627,2.3013s-2.3860207,0.2727089-4.4174995,0.1221676       C36.676506,30.714716,34.2208519,30.4627304,34.1737862,31.5052376z" data-original="#FCD462"/>
					<path fill="#44C4A1" d="M34.6060143,30.5890694c0.7465439-0.2954006,1.8569069-0.1980858,2.0740891-0.1755924       c1.3553505,0.0964222,3.0731201,0.0653324,3.9413795,0.0030594c-0.555748-0.50634-2.584034-2.174736-4.817131-1.806118       c-0.0220757,0.003624-0.045845,0.0110855-0.0710831,0.0190067c-0.027668,0.0086555-0.0563583,0.0176468-0.0880051,0.0234985       c-0.2426834,0.0448742-0.8081245,0.4589558-1.0823288,0.7284412c0.0818405-0.1570606,0.1740112-0.3052406,0.2755318-0.4392071       c0.2749023-0.2101135,0.5891113-0.4078941,0.7786026-0.4429722c0.0238228-0.0044327,0.0468063-0.0118065,0.0696259-0.018959       c0.0292778-0.0091686,0.0595818-0.018671,0.0925293-0.0241089c2.5518379-0.4212246,4.8287201,1.7225456,5.0799561,1.9683971       l0.1211205,0.1185017l-0.1695557,0.0152149c-0.7971306,0.0715923-2.6802483,0.1153297-4.1495056,0.0105553       c-0.208744-0.0215797-1.2878304-0.1122055-1.9978752,0.1656303c-0.2235756,0.0882111-0.4146423,0.229723-0.5376244,0.3238907       c0.0001411-0.065197,0.002388-0.1320038,0.0075607-0.2006798       C34.2575798,30.7677002,34.4196739,30.6625557,34.6060143,30.5890694z" data-original="#44C4A1"/>
					<path fill="#F6C358" d="M36.676506,30.714716c2.0314789,0.1505413,4.4174995-0.1221676,4.4174995-0.1221676       l-4.7432785,1.4935913c0,0-1.6610603,0.3694077-2.0769882-0.3276615       c-0.0429611-0.0720081-0.0758476-0.1576576-0.0999527-0.2532406       C34.2208519,30.4627304,36.676506,30.714716,36.676506,30.714716z" data-original="#F6C358"/>
				</g>
			</g>
			
				<rect x="31.6411057" y="30.4222908" transform="matrix(0.9382669 -0.3459122 0.3459122 0.9382669 -8.5691938 16.3534222)" fill="#E56353" width="19.782526" height="3.5250223" data-original="#E56353"/>
			
				<rect x="34.8055801" y="33.4570465" transform="matrix(0.9382669 -0.3459122 0.3459122 0.9382669 -10.9771366 17.7636833)" fill="#D15241" width="18.9478207" height="12.3583136" data-original="#D15241"/>
			
				<rect x="32.8181648" y="33.8117332" transform="matrix(0.9381416 -0.346252 0.346252 0.9381416 -9.241436 16.762085)" fill="#CE412D" width="18.9478207" height="0.8674573" data-original="#CE412D"/>
			
				<rect x="41.9697075" y="30.0408306" transform="matrix(0.9382669 -0.3459122 0.3459122 0.9382669 -10.4427366 17.4507008)" fill="#FCD462" width="3.4002166" height="15.8833361" data-original="#FCD462"/>
			<g>
				
					<rect x="42.4501839" y="30.4336452" transform="matrix(0.9382669 -0.3459122 0.3459122 0.9382669 -10.6443911 17.1063881)" fill="#44C4A1" width="0.3082968" height="15.8833361" data-original="#44C4A1"/>
				
					<rect x="44.5811501" y="29.6480179" transform="matrix(0.9382669 -0.3459122 0.3459122 0.9382669 -10.2410822 17.7950153)" fill="#44C4A1" width="0.3082968" height="15.8833361" data-original="#44C4A1"/>
			</g>
			<g>
				<g>
					<path fill="#F6C358" d="M40.4015007,36.212101c0.005352-0.9295464-0.3281364-1.5334358-0.9172707-2.7132149       c-1.1656227,0.6339035-1.7884178,0.9403114-2.3218002,1.7055969c0.6135941-2.2310371,1.3622932-3.3562679,2.7597694-5.2110806       c0.4923058,0.1531525,0.7384567,0.2297268,1.2307663,0.3828697       C41.2259331,32.6885147,41.1889648,34.0351677,40.4015007,36.212101z" data-original="#F6C358"/>
					<path fill="#44C4A1" d="M40.14328,30.06217c-0.0159492-0.004961-0.0305977-0.0095177-0.047039-0.0146313       c-0.0080338-0.0025005-0.0173492-0.0053978-0.0255089-0.0079365c-0.9492149,1.3475056-1.9594498,2.9644337-2.3866005,4.5747509       c0.1349869-0.1201057,0.2809029-0.2302856,0.4412575-0.3378105c0.5538139-1.7380791,1.1742554-2.6374397,2.0569305-4.2022152       C40.1667023,30.0694695,40.1553535,30.0659275,40.14328,30.06217z" data-original="#44C4A1"/>
					<path fill="#44C4A1" d="M41.0044327,30.330061c-0.0081596-0.0025387-0.0174713-0.0054359-0.0255051-0.0079346       c-0.0164452-0.0051155-0.0310707-0.0096664-0.0470619-0.0146408c-0.0120506-0.0037479-0.0234299-0.0072765-0.0390472-0.0121346       c-0.1816216,1.782896-0.1927376,2.8718281-0.7441101,4.6107121c0.069313,0.1789818,0.1251488,0.3519211,0.1664047,0.5268555       C40.896347,33.8705025,41.0033073,31.9725437,41.0044327,30.330061z" data-original="#44C4A1"/>
				</g>
				<g>
					<path fill="#F6C358" d="M44.9023972,34.5527458c-0.6074524-0.7036209-0.7457657-1.379467-1.063427-2.6593285       c1.2981529-0.2744198,1.9707985-0.4456043,2.8732948-0.2096882c-1.9149551-1.2988319-3.2148857-1.6687908-5.4819221-2.1726017       c-0.2750778,0.4360638-0.4126167,0.6540947-0.6877022,1.0901527       C41.9880486,32.407547,42.8903046,33.4079323,44.9023972,34.5527458z" data-original="#F6C358"/>
					<path fill="#44C4A1" d="M41.1068077,29.7069454c0.0089111-0.0141258,0.0170975-0.0271015,0.0262833-0.0416641       c0.0044899-0.0071182,0.0096931-0.0153675,0.0142555-0.0225945c1.5967407,0.4088821,3.4147949,0.9831009,4.7850037,1.9307842       c-0.1806488-0.0037422-0.3631592,0.0071621-0.5549355,0.0294571c-1.5494957-0.9626484-2.6052475-1.2440453-4.2924118-1.8613949       C41.0937271,29.7277012,41.1000633,29.7176399,41.1068077,29.7069454z" data-original="#44C4A1"/>
					<path fill="#44C4A1" d="M40.6256294,30.4697151c0.0045586-0.0072269,0.0097618-0.0154762,0.0142517-0.0225945       c0.0091896-0.0145626,0.0173607-0.0275192,0.0262947-0.0416813c0.0067368-0.0106773,0.0130997-0.0207443,0.0218277-0.0345783       c1.2954636,1.2383347,2.0107613,2.0594635,3.5589256,3.0243073c0.0634537,0.1811409,0.1332359,0.348938,0.2154045,0.5087891       C43.0060081,33.0927277,41.6926498,31.7184029,40.6256294,30.4697151z" data-original="#44C4A1"/>
				</g>
			</g>
			<path fill="#DC8744" d="M40.4502373,29.2495823c-0.7053528,0.2600422-1.067688,1.0390339-0.8092918,1.7399216     l2.5543213-0.9417057C41.9368706,29.3469105,41.1555901,28.9895382,40.4502373,29.2495823z" data-original="#DC8744"/>
		</g>
		<g>
			<g>
				<circle fill="#64798A" cx="43.1500015" cy="73.5147552" r="3.9854562" data-original="#64798A"/>
			</g>
			<g>
				<circle fill="#EBF0F3" cx="43.1500015" cy="73.5147552" r="2.2359259" data-original="#EBF0F3"/>
			</g>
			<g>
				<circle fill="#64798A" cx="68.4139709" cy="73.5147552" r="3.9854562" data-original="#64798A"/>
			</g>
			<g>
				<circle fill="#EBF0F3" cx="68.4139709" cy="73.5147552" r="2.2359259" data-original="#EBF0F3"/>
			</g>
			<path fill="#EBF0F3" d="M32.0053825,35.5511703v1.7495308h6.6863136v2.8250465h-5.7790871v1.749527h5.7790871v3.0394707     H34.197422v1.749527h4.4942741v3.0394669h-3.5110207V51.45327h3.5110207v3.0394669h-2.301384v1.7495308h2.301384v4.5443039     l-1.0242615,0.0998955l0.1691437,1.7409897l33.9672012-3.3119774L77.5,35.5511703H32.0053825z M74.605011,40.1257477h-6.6402893     v-2.8250465h7.3176117L74.605011,40.1257477z M54.2033997,49.7037392v-3.0394669h5.1315575v3.0394669H54.2033997z      M59.3349571,51.45327v3.0394669h-5.1315575V51.45327H59.3349571z M54.2033997,44.9147453v-3.0394707h5.1315575v3.0394707     H54.2033997z M61.0844879,41.8752747h5.1306992v3.0394707h-5.1306992V41.8752747z M61.0844879,40.1257477v-2.8250465h5.1306992     v2.8250465H61.0844879z M59.3349571,40.1257477h-5.1315575v-2.8250465h5.1315575V40.1257477z M52.4538689,40.1257477h-5.1315536     v-2.8250465h5.1315536V40.1257477z M52.4538689,41.8752747v3.0394707h-5.1315536v-3.0394707H52.4538689z M52.4538689,46.6642723     v3.0394669h-5.1315536v-3.0394669H52.4538689z M52.4538689,51.45327v3.0394669h-5.1315536V51.45327H52.4538689z      M52.4538689,56.2422676v3.2021523l-5.1315536,0.5004349v-3.7025871H52.4538689z M54.2033997,56.2422676h5.1315575v2.5310745     l-5.1315575,0.5004387V56.2422676z M61.0844879,56.2422676h5.1306992v1.8600502l-5.1306992,0.5003853V56.2422676z      M61.0844879,54.4927368V51.45327h5.1306992v3.0394669H61.0844879z M61.0844879,49.7037392v-3.0394669h5.1306992v3.0394669     H61.0844879z M67.9647217,46.6642723h5.0726089l-0.7287903,3.0394669h-4.3438187V46.6642723z M67.9647217,44.9147453v-3.0394707     h6.2207413l-0.7286911,3.0394707H67.9647217z M40.441227,37.3007011h5.1315575v2.8250465H40.441227V37.3007011z      M40.441227,41.8752747h5.1315575v3.0394707H40.441227V41.8752747z M40.441227,46.6642723h5.1315575v3.0394669H40.441227     V46.6642723z M40.441227,51.45327h5.1315575v3.0394669H40.441227V51.45327z M40.441227,56.2422676h5.1315575v3.8732262     l-5.1315575,0.5004387V56.2422676z M67.9647217,57.9317322v-1.6894646H70.74086l-0.3483276,1.4526749L67.9647217,57.9317322z      M71.1603012,54.4927368h-3.1955795V51.45327h3.9242706L71.1603012,54.4927368z" data-original="#EBF0F3"/>
			<g>
				<path fill="#1C75A1" d="M74.5739822,66.5365601H37.7110023c-1.0105934,0-1.8298302-0.8192368-1.8298302-1.8298264v-0.1084976      c0-0.9429436,0.7140579-1.7422676,1.6536407-1.8218727c0.3191719-0.0270691,0.6103706-0.1908226,0.7963867-0.4478989      c0.1819572-0.2515831,0.2468796-0.5697937,0.1768303-0.8743401l-7.5670586-32.6785431h-4.0492058v1.7495308h2.6584663      l7.0972137,30.6526585c-1.4753113,0.4519043-2.5158043,1.8131714-2.5158043,3.4204636v0.1084976      c0,1.9768143,1.6025963,3.579361,3.579361,3.579361h36.8629799c0.4830856,0,0.8747635-0.3916855,0.8747635-0.8747711      C75.4487457,66.9281845,75.0570679,66.5365601,74.5739822,66.5365601z" data-original="#1C75A1" class=""/>
			</g>
			<g>
				<path fill="#E56353" d="M23.7598248,28.3926067c-0.695797,0-1.2598248,0.5640278-1.2598248,1.2597713      s0.5640278,1.2597713,1.2598248,1.2597713h4.7004738v-2.5195427H23.7598248z" data-original="#E56353"/>
			</g>
		</g>
	</g>
</g></g> </svg>
