<?xml version="1.0" encoding="UTF-8"?>
<!DOCTYPE svg PUBLIC "-//W3C//DTD SVG 1.1//EN" "http://www.w3.org/Graphics/SVG/1.1/DTD/svg11.dtd">
<!-- Creator: CorelDRAW 2019 (64-Bit) -->
<svg xmlns="http://www.w3.org/2000/svg" xml:space="preserve" width="180px" height="120px" version="1.1" style="shape-rendering:geometricPrecision; text-rendering:geometricPrecision; image-rendering:optimizeQuality; fill-rule:evenodd; clip-rule:evenodd"
viewBox="0 0 180 120"
 xmlns:xlink="http://www.w3.org/1999/xlink">
 <defs>
  <style type="text/css">
   <![CDATA[
    .fil0 {fill:#01A4CD}
    .fil2 {fill:#01A4CD;fill-rule:nonzero}
    .fil1 {fill:#405054;fill-rule:nonzero}
   ]]>
  </style>
 </defs>
 <g id="Layer_x0020_1">
  <metadata id="CorelCorpID_0Corel-Layer"/>
  <g id="_1867844668448">
   <path class="fil0" d="M75.29 2.44c0,0 -0.06,-0.68 0.68,-0.74l5.73 -0.03 5.17 -0.07 14.29 -0.12c0,0 15.8,-0.52 21.79,9.7 0,0 4.65,7.97 1.71,18.74 0,0 -2.19,8.69 -11,12.1l15.28 26.95 -17.07 0.06 -12.91 -24.28 -8.43 0.04 0 24.29 -11.73 0.13 -7.15 0.1 -1.11 -0.01c0,0 -5.81,0.15 -6.87,-6.86l-0.01 -9.62 -8.6 0 3.63 -3.54 -3.63 -3.54 8.6 0 0 -28.22 0 -12.92c0,0 -0.15,-1.5 1.24,-2.68 0,0 0.56,-0.46 1.17,-0.66 0,0 0.67,-0.18 0.62,0.67 -0.05,0.84 0,43.81 0,43.81l2.78 0 0 7.08 -2.78 0 0 8.94c0,0 -0.25,4.04 3.88,4.62 0,0 2.49,0.31 4.05,-1.98 0,0 0.67,-0.91 0.67,-2.21l0 -1.9 0 -26.78c0,0 0,-31.13 0,-31.07zm15.21 11.17l0 18.97 9.05 -0.02c0,0 9.72,0.23 11,-7.83 0,0 1.48,-6.87 -3.61,-9.53 0,0 -2.52,-1.58 -7.76,-1.59 5.24,0.01 -8.68,0 -8.68,0z"/>
   <path class="fil0" d="M70.49 63.5c0,0 0,0.4 0.41,0.47 0,0 0.48,0.05 0.53,-0.47l0 -38.25 0 -21.56c0,0 0.03,-0.27 -0.21,-0.43 0,0 -0.16,-0.14 -0.41,-0.06 0,0 -0.27,0.07 -0.32,0.4l0 0.03c0,0 0,59.87 0,59.87z"/>
   <path class="fil0" d="M72.99 62.69c0,0 0.79,0.02 0.94,-0.87l0 -39.57 0 -18.61c0,0 0,-0.43 -0.47,-0.46 0,0 -0.42,-0.01 -0.47,0.44l0 44.43 0 14.64z"/>
   <path class="fil0" d="M68.92 62.69c0,0 -0.78,0.01 -0.94,-0.88l0 -8.09 0.94 0 0 8.97zm-0.94 -17.84l0 -22.6 0 -18.61c0,0 0.01,-0.43 0.47,-0.47 0,0 0.42,-0.01 0.47,0.45l0 41.23 -0.94 0z"/>
  </g>
  <path class="fil1" d="M30.93 103.91l-3.22 0c-0.19,-1.7 -0.91,-3.22 -2.16,-4.56 -1.12,-1.17 -2.56,-2.1 -4.33,-2.79 -1.39,0.16 -2.71,0.23 -3.95,0.23 -1.79,0 -3.43,-0.11 -4.93,-0.33l0.61 -3.18c1.33,0.19 2.76,0.29 4.3,0.29 1.75,0 3.61,-0.22 5.57,-0.67 2.71,-0.6 4.09,-1.46 4.15,-2.58 0.11,-1.19 0.16,-2.8 0.16,-4.82 0,-0.61 -0.02,-1.05 -0.06,-1.34 -0.16,-1.07 -1.42,-1.86 -3.77,-2.37 -1.55,-0.32 -3.27,-0.48 -5.13,-0.48 -1.88,0 -3.7,0.2 -5.46,0.6 -2.64,0.59 -3.95,1.48 -3.95,2.68l0 19.32 -3.23 0 0 -19.18c0,-2.94 1.87,-4.89 5.6,-5.87 2.05,-0.52 4.44,-0.79 7.18,-0.79 2.32,0 4.25,0.17 5.77,0.52 4.08,0.89 6.11,2.72 6.11,5.5 0,0.67 0,1.68 0,3.04 0,1.36 0,2.37 0,3.04 0,2.11 -1.36,3.89 -4.08,5.35 2.99,2.57 4.59,5.37 4.82,8.39zm28.77 -12.31l0 12.31 -3.22 0 0 -12.34c0,-1.01 -1.04,-1.81 -3.12,-2.4 -1.74,-0.49 -3.72,-0.73 -5.94,-0.73 -2.2,0 -4.17,0.24 -5.91,0.73 -2.08,0.59 -3.12,1.39 -3.12,2.42l0 6.04c0,1.05 1.03,1.86 3.1,2.45 1.73,0.49 3.71,0.73 5.93,0.73 1.74,0 3.39,-0.15 4.95,-0.46l0.66 3.2c-1.72,0.32 -3.59,0.49 -5.62,0.49 -8.16,0 -12.24,-2.14 -12.24,-6.42l0 -6.02c0,-4.26 4.08,-6.38 12.25,-6.38 8.19,0 12.28,2.12 12.28,6.38zm28.97 13.83c0,4.15 -4.08,6.23 -12.22,6.23 -2.01,0 -3.87,-0.16 -5.59,-0.49l0.66 -3.1c1.54,0.29 3.18,0.43 4.93,0.43 2.2,0 4.17,-0.24 5.89,-0.73 2.11,-0.56 3.17,-1.35 3.17,-2.34l0 -13.98c0,-1 -1.04,-1.79 -3.13,-2.37 -1.75,-0.47 -3.72,-0.71 -5.93,-0.71 -2.23,0 -4.21,0.24 -5.93,0.71 -2.09,0.58 -3.13,1.37 -3.13,2.37l0 5.91c0,0.99 1.03,1.77 3.1,2.34 1.72,0.49 3.7,0.73 5.95,0.73 1.73,0 3.36,-0.14 4.89,-0.41l0.67 3.08c-1.72,0.32 -3.57,0.49 -5.56,0.49 -8.14,0 -12.21,-2.08 -12.21,-6.24l0 -5.9c0,-4.16 4.07,-6.23 12.22,-6.23 8.14,0 12.22,2.07 12.22,6.23l0 13.98zm29.49 -1.52l-3.22 0 0 -11.9c0,-1.01 -1.06,-1.81 -3.16,-2.4 -1.76,-0.46 -3.76,-0.69 -5.98,-0.69 -2.25,0 -4.25,0.23 -5.98,0.69 -2.13,0.59 -3.2,1.39 -3.2,2.4l0 11.9 -3.22 0 0 -25.84 3.22 0 0 9.13c2.76,-1.01 5.82,-1.51 9.18,-1.51 8.24,0 12.36,2.11 12.36,6.32l0 11.9zm29.86 -12.31l0 12.31 -3.23 0 0 -12.34c0,-1.01 -1.04,-1.81 -3.12,-2.4 -1.73,-0.49 -3.71,-0.73 -5.94,-0.73 -2.2,0 -4.16,0.24 -5.9,0.73 -2.08,0.59 -3.12,1.39 -3.12,2.42l0 6.04c0,1.05 1.03,1.86 3.09,2.45 1.74,0.49 3.72,0.73 5.94,0.73 1.74,0 3.39,-0.15 4.94,-0.46l0.67 3.2c-1.72,0.32 -3.6,0.49 -5.62,0.49 -8.16,0 -12.25,-2.14 -12.25,-6.42l0 -6.02c0,-4.26 4.09,-6.38 12.25,-6.38 8.19,0 12.29,2.12 12.29,6.38zm26.43 -4.98c-1.07,2.88 -2.21,5.56 -3.4,8.03 -3.04,6.26 -5.69,9.39 -7.96,9.39 -2.13,0 -4.46,-2.41 -6.99,-7.22 -1.54,-2.86 -3,-6.28 -4.37,-10.25l3.03 -1.1c1.08,2.86 2.26,5.6 3.56,8.22 1.88,3.83 3.47,6.18 4.77,7.03 1.28,-0.95 2.85,-3.31 4.74,-7.08 1.26,-2.53 2.46,-5.26 3.62,-8.17l3 1.15z"/>
  <path class="fil2" d="M101.04 118.29l-2.32 -7.15c-0.05,-0.15 -0.17,-0.23 -0.32,-0.23l-1.76 0c-0.15,0 -0.27,0.08 -0.32,0.23l-2.32 7.15c-0.07,0.2 0.03,0.31 0.23,0.31l1.35 0c0.15,0 0.26,-0.07 0.31,-0.23l0.28 -0.98 2.7 0 0.29 0.98c0.04,0.16 0.15,0.23 0.3,0.23l1.35 0c0.2,0 0.3,-0.11 0.23,-0.31zm-4.38 -2.55l0.86 -2.9 0.86 2.9 -1.72 0zm13.09 3.01c1.77,0 3.27,-1.12 3.7,-2.72 0.04,-0.18 -0.05,-0.29 -0.24,-0.29l-1.3 0c-0.15,0 -0.24,0.08 -0.3,0.22 -0.31,0.67 -1.02,1.08 -1.86,1.08 -1.36,0 -2.24,-0.91 -2.24,-2.28 0,-1.38 0.88,-2.29 2.24,-2.29 0.84,0 1.55,0.41 1.86,1.08 0.06,0.14 0.15,0.22 0.3,0.22l1.3 0c0.19,0 0.28,-0.12 0.24,-0.31 -0.45,-1.6 -1.94,-2.7 -3.7,-2.7 -2.31,0 -3.99,1.74 -3.99,4 0,2.26 1.68,3.99 3.99,3.99zm15.47 -0.46l-2.33 -7.15c-0.04,-0.15 -0.16,-0.23 -0.31,-0.23l-1.76 0c-0.16,0 -0.28,0.08 -0.32,0.23l-2.33 7.15c-0.06,0.2 0.04,0.31 0.23,0.31l1.35 0c0.16,0 0.27,-0.07 0.31,-0.23l0.29 -0.98 2.69 0 0.29 0.98c0.05,0.16 0.16,0.23 0.31,0.23l1.35 0c0.2,0 0.3,-0.11 0.23,-0.31zm-4.38 -2.55l0.86 -2.9 0.86 2.9 -1.72 0zm13.1 -4.83l-1.54 0 -1.48 0c-0.18,0 -0.28,0.1 -0.28,0.28l0 7.13c0,0.18 0.1,0.28 0.28,0.28l0.27 0 2.75 0c2.12,0 3.73,-1.67 3.73,-3.84 0,-2.18 -1.61,-3.85 -3.73,-3.85zm0 6l-1.54 0 0 -4.31 1.54 0c1.2,0 2.04,0.84 2.04,2.16 0,1.31 -0.84,2.15 -2.04,2.15zm13.72 0l-2.58 0 0 -1.37 2.25 0c0.18,0 0.28,-0.1 0.28,-0.28l0 -1.1c0,-0.17 -0.1,-0.27 -0.28,-0.27l-2.25 0 0 -1.29 2.53 0c0.17,0 0.27,-0.09 0.27,-0.27l0 -1.14c0,-0.18 -0.1,-0.28 -0.27,-0.28l-2.53 0 -1.48 0c-0.18,0 -0.27,0.1 -0.27,0.28l0 7.13c0,0.18 0.09,0.28 0.27,0.28l0.27 0 3.79 0c0.18,0 0.28,-0.1 0.28,-0.28l0 -1.14c0,-0.17 -0.1,-0.27 -0.28,-0.27zm13.34 -6l-0.58 0 -0.89 0c-0.15,0 -0.26,0.07 -0.32,0.21l-1.78 4.23 -1.78 -4.23c-0.05,-0.14 -0.16,-0.21 -0.32,-0.21l-0.26 0 -1.21 0c-0.17,0 -0.27,0.1 -0.27,0.28l0 7.13c0,0.18 0.1,0.28 0.27,0.28l1.21 0c0.18,0 0.28,-0.1 0.28,-0.28l0 -4.43 1.39 3.3c0.05,0.15 0.16,0.21 0.32,0.21l0.75 0c0.15,0 0.26,-0.06 0.31,-0.21l1.4 -3.3 0 4.43c0,0.18 0.1,0.28 0.27,0.28l1.21 0c0.18,0 0.27,-0.1 0.27,-0.28l0 -7.13c0,-0.18 -0.09,-0.28 -0.27,-0.28zm11.92 0l-1.4 0c-0.16,0 -0.26,0.07 -0.32,0.2l-1.25 2.4 -1.25 -2.4c-0.07,-0.13 -0.17,-0.2 -0.32,-0.2l-1.41 0c-0.21,0 -0.29,0.14 -0.18,0.33l2.28 3.99 0 3.09c0,0.18 0.1,0.28 0.27,0.28l1.21 0c0.18,0 0.28,-0.1 0.28,-0.28l0 -3.09 2.28 -3.99c0.11,-0.19 0.02,-0.33 -0.19,-0.33z"/>
 </g>
</svg>
