<?xml version="1.0" encoding="UTF-8"?>
<!DOCTYPE svg PUBLIC "-//W3C//DTD SVG 1.1//EN" "http://www.w3.org/Graphics/SVG/1.1/DTD/svg11.dtd">
<!-- Creator: CorelDRAW 2019 (64-Bit) -->
<svg xmlns="http://www.w3.org/2000/svg" xml:space="preserve" width="75px" height="53px" version="1.1" style="shape-rendering:geometricPrecision; text-rendering:geometricPrecision; image-rendering:optimizeQuality; fill-rule:evenodd; clip-rule:evenodd"
viewBox="0 0 75 53"
 xmlns:xlink="http://www.w3.org/1999/xlink">
 <defs>
  <style type="text/css">
   <![CDATA[
    .fil0 {fill:#01A4CD}
    .fil2 {fill:#01A4CD;fill-rule:nonzero}
    .fil1 {fill:#405054;fill-rule:nonzero}
   ]]>
  </style>
 </defs>
 <g id="Layer_x0020_1">
  <metadata id="CorelCorpID_0Corel-Layer"/>
  <g id="_1867843628720">
   <path class="fil0" d="M31.25 2.03c0,0 -0.03,-0.3 0.29,-0.32l2.43 -0.02 2.2 -0.02 6.08 -0.05c0,0 6.72,-0.22 9.27,4.12 0,0 1.97,3.39 0.72,7.97 0,0 -0.93,3.7 -4.68,5.14l6.5 11.46 -7.26 0.03 -5.49 -10.32 -3.58 0.01 0 10.33 -4.99 0.06 -3.04 0.04 -0.47 -0.01c0,0 -2.47,0.07 -2.92,-2.91l-0.01 -4.09 -3.66 0 1.55 -1.51 -1.55 -1.5 3.66 0 0 -12 0 -5.5c0,0 -0.06,-0.63 0.53,-1.14 0,0 0.24,-0.19 0.5,-0.28 0,0 0.28,-0.07 0.26,0.29 -0.02,0.36 0,18.63 0,18.63l1.18 0 0 3.01 -1.18 0 0 3.8c0,0 -0.1,1.72 1.65,1.96 0,0 1.06,0.13 1.72,-0.84 0,0 0.29,-0.39 0.29,-0.94l0 -0.81 0 -11.38c0,0 0,-13.24 0,-13.21zm6.47 4.74l0 8.07 3.84 -0.01c0,0 4.14,0.1 4.68,-3.33 0,0 0.63,-2.92 -1.54,-4.05 0,0 -1.06,-0.67 -3.29,-0.67 2.23,0 -3.69,-0.01 -3.69,-0.01z"/>
   <path class="fil0" d="M29.21 27.99c0,0 0,0.17 0.17,0.2 0,0 0.21,0.02 0.23,-0.2l0 -16.27 0 -9.17c0,0 0.01,-0.11 -0.09,-0.18 0,0 -0.07,-0.05 -0.18,-0.02 0,0 -0.11,0.03 -0.13,0.17l0 0.01c0,0 0,25.46 0,25.46z"/>
   <path class="fil0" d="M30.27 27.65c0,0 0.33,0 0.4,-0.38l0 -16.82 0 -7.91c0,0 0,-0.19 -0.2,-0.2 0,0 -0.18,-0.01 -0.2,0.19l0 18.89 0 6.23z"/>
   <path class="fil0" d="M28.54 27.64c0,0 -0.33,0.01 -0.4,-0.37l0 -3.44 0.4 0 0 3.81zm-0.4 -7.58l0 -9.61 0 -7.92c0,0 0,-0.18 0.2,-0.19 0,0 0.18,-0.01 0.2,0.19l0 17.53 -0.4 0z"/>
  </g>
  <path class="fil1" d="M12.38 45.17l-1.37 0c-0.07,-0.72 -0.38,-1.37 -0.91,-1.94 -0.48,-0.5 -1.09,-0.89 -1.84,-1.18 -0.6,0.06 -1.16,0.1 -1.68,0.1 -0.76,0 -1.46,-0.05 -2.1,-0.15l0.26 -1.35c0.56,0.08 1.17,0.13 1.83,0.13 0.74,0 1.53,-0.1 2.37,-0.29 1.15,-0.26 1.74,-0.62 1.76,-1.1 0.05,-0.5 0.07,-1.19 0.07,-2.05 0,-0.26 -0.01,-0.45 -0.03,-0.57 -0.07,-0.45 -0.6,-0.79 -1.6,-1 -0.66,-0.14 -1.39,-0.21 -2.18,-0.21 -0.8,0 -1.58,0.09 -2.32,0.26 -1.12,0.25 -1.68,0.63 -1.68,1.14l0 8.21 -1.37 0 0 -8.16c0,-1.25 0.79,-2.08 2.37,-2.49 0.87,-0.22 1.89,-0.34 3.06,-0.34 0.99,0 1.81,0.08 2.45,0.22 1.74,0.38 2.6,1.16 2.6,2.34 0,0.29 0,0.72 0,1.3 0,0.57 0,1 0,1.29 0,0.89 -0.58,1.65 -1.74,2.27 1.28,1.1 1.96,2.29 2.05,3.57zm12.24 -5.23l0 5.23 -1.37 0 0 -5.24c0,-0.44 -0.44,-0.78 -1.33,-1.03 -0.74,-0.2 -1.58,-0.31 -2.52,-0.31 -0.94,0 -1.78,0.11 -2.52,0.31 -0.88,0.25 -1.32,0.6 -1.32,1.03l0 2.57c0,0.45 0.44,0.79 1.31,1.04 0.74,0.21 1.58,0.32 2.53,0.32 0.74,0 1.44,-0.07 2.1,-0.2l0.28 1.36c-0.73,0.14 -1.52,0.21 -2.39,0.21 -3.47,0 -5.2,-0.91 -5.2,-2.73l0 -2.56c0,-1.81 1.73,-2.72 5.21,-2.72 3.48,0 5.22,0.91 5.22,2.72zm12.32 5.88c0,1.76 -1.74,2.65 -5.2,2.65 -0.85,0 -1.65,-0.07 -2.38,-0.21l0.29 -1.32c0.65,0.12 1.35,0.19 2.09,0.19 0.94,0 1.78,-0.11 2.51,-0.31 0.9,-0.25 1.34,-0.58 1.34,-1l0 -5.95c0,-0.42 -0.44,-0.76 -1.33,-1.01 -0.74,-0.2 -1.58,-0.29 -2.52,-0.29 -0.95,0 -1.79,0.09 -2.52,0.29 -0.89,0.25 -1.33,0.59 -1.33,1.01l0 2.52c0,0.42 0.44,0.75 1.32,0.99 0.73,0.21 1.57,0.31 2.53,0.31 0.73,0 1.43,-0.06 2.08,-0.17l0.28 1.31c-0.73,0.14 -1.52,0.21 -2.36,0.21 -3.46,0 -5.2,-0.89 -5.2,-2.66l0 -2.51c0,-1.76 1.74,-2.65 5.2,-2.65 3.46,0 5.2,0.89 5.2,2.65l0 5.95zm12.54 -0.65l-1.37 0 0 -5.06c0,-0.43 -0.45,-0.77 -1.35,-1.02 -0.74,-0.2 -1.59,-0.29 -2.54,-0.29 -0.96,0 -1.8,0.09 -2.54,0.29 -0.91,0.25 -1.36,0.59 -1.36,1.02l0 5.06 -1.37 0 0 -10.99 1.37 0 0 3.89c1.17,-0.43 2.47,-0.64 3.9,-0.64 3.51,0 5.26,0.89 5.26,2.68l0 5.06zm12.69 -5.23l0 5.23 -1.37 0 0 -5.24c0,-0.44 -0.44,-0.78 -1.32,-1.03 -0.74,-0.2 -1.58,-0.31 -2.53,-0.31 -0.93,0 -1.77,0.11 -2.51,0.31 -0.88,0.25 -1.33,0.6 -1.33,1.03l0 2.57c0,0.45 0.44,0.79 1.32,1.04 0.74,0.21 1.58,0.32 2.52,0.32 0.74,0 1.44,-0.07 2.11,-0.2l0.28 1.36c-0.73,0.14 -1.53,0.21 -2.39,0.21 -3.47,0 -5.21,-0.91 -5.21,-2.73l0 -2.56c0,-1.81 1.74,-2.72 5.21,-2.72 3.48,0 5.22,0.91 5.22,2.72zm11.24 -2.12c-0.45,1.22 -0.93,2.36 -1.44,3.41 -1.29,2.66 -2.42,4 -3.39,4 -0.9,0 -1.89,-1.03 -2.97,-3.07 -0.65,-1.22 -1.27,-2.67 -1.86,-4.36l1.29 -0.47c0.46,1.22 0.96,2.38 1.51,3.5 0.81,1.63 1.48,2.62 2.03,2.98 0.55,-0.4 1.22,-1.4 2.02,-3 0.53,-1.08 1.04,-2.24 1.54,-3.48l1.27 0.49z"/>
  <path class="fil2" d="M42.2 51.29l-0.99 -3.04c-0.02,-0.07 -0.07,-0.1 -0.14,-0.1l-0.74 0c-0.07,0 -0.12,0.03 -0.14,0.1l-0.99 3.04c-0.03,0.08 0.02,0.13 0.1,0.13l0.58 0c0.06,0 0.11,-0.03 0.13,-0.1l0.12 -0.42 1.14 0 0.13 0.42c0.02,0.07 0.06,0.1 0.13,0.1l0.57 0c0.09,0 0.13,-0.05 0.1,-0.13zm-1.86 -1.09l0.36 -1.23 0.37 1.23 -0.73 0zm5.56 1.28c0.75,0 1.39,-0.47 1.57,-1.15 0.02,-0.08 -0.02,-0.13 -0.1,-0.13l-0.55 0c-0.06,0 -0.1,0.04 -0.13,0.1 -0.13,0.28 -0.43,0.46 -0.79,0.46 -0.58,0 -0.95,-0.39 -0.95,-0.97 0,-0.59 0.37,-0.98 0.95,-0.98 0.36,0 0.66,0.18 0.79,0.46 0.03,0.06 0.07,0.09 0.13,0.09l0.55 0c0.08,0 0.12,-0.05 0.1,-0.13 -0.19,-0.68 -0.82,-1.14 -1.57,-1.14 -0.98,0 -1.7,0.73 -1.7,1.7 0,0.96 0.72,1.69 1.7,1.69zm6.58 -0.19l-0.99 -3.04c-0.02,-0.07 -0.07,-0.1 -0.14,-0.1l-0.74 0c-0.07,0 -0.12,0.03 -0.14,0.1l-0.99 3.04c-0.03,0.08 0.02,0.13 0.1,0.13l0.57 0c0.07,0 0.12,-0.03 0.13,-0.1l0.13 -0.42 1.14 0 0.13 0.42c0.01,0.07 0.06,0.1 0.13,0.1l0.57 0c0.09,0 0.13,-0.05 0.1,-0.13zm-1.86 -1.09l0.36 -1.23 0.37 1.23 -0.73 0zm5.57 -2.05l-0.66 0 -0.63 0c-0.07,0 -0.12,0.04 -0.12,0.12l0 3.03c0,0.08 0.05,0.12 0.12,0.12l0.12 0 1.17 0c0.9,0 1.58,-0.71 1.58,-1.63 0,-0.93 -0.68,-1.64 -1.58,-1.64zm0 2.55l-0.66 0 0 -1.83 0.66 0c0.51,0 0.86,0.36 0.86,0.92 0,0.55 -0.35,0.91 -0.86,0.91zm5.83 0l-1.1 0 0 -0.58 0.96 0c0.08,0 0.12,-0.05 0.12,-0.12l0 -0.47c0,-0.07 -0.04,-0.11 -0.12,-0.11l-0.96 0 0 -0.55 1.08 0c0.07,0 0.11,-0.04 0.11,-0.12l0 -0.48c0,-0.08 -0.04,-0.12 -0.11,-0.12l-1.08 0 -0.63 0c-0.07,0 -0.11,0.04 -0.11,0.12l0 3.03c0,0.08 0.04,0.12 0.11,0.12l0.12 0 1.61 0c0.07,0 0.12,-0.04 0.12,-0.12l0 -0.48c0,-0.08 -0.05,-0.12 -0.12,-0.12zm5.67 -2.55l-0.24 0 -0.38 0c-0.07,0 -0.11,0.03 -0.14,0.09l-0.75 1.8 -0.76 -1.8c-0.02,-0.06 -0.07,-0.09 -0.14,-0.09l-0.11 0 -0.51 0c-0.08,0 -0.12,0.04 -0.12,0.12l0 3.03c0,0.08 0.04,0.12 0.12,0.12l0.51 0c0.08,0 0.12,-0.04 0.12,-0.12l0 -1.88 0.59 1.4c0.03,0.06 0.07,0.09 0.14,0.09l0.32 0c0.06,0 0.11,-0.03 0.13,-0.09l0.59 -1.4 0 1.88c0,0.08 0.05,0.12 0.12,0.12l0.51 0c0.08,0 0.12,-0.04 0.12,-0.12l0 -3.03c0,-0.08 -0.04,-0.12 -0.12,-0.12zm5.07 0l-0.59 0c-0.07,0 -0.11,0.03 -0.14,0.09l-0.53 1.01 -0.53 -1.01c-0.03,-0.06 -0.07,-0.09 -0.14,-0.09l-0.6 0c-0.09,0 -0.12,0.06 -0.08,0.14l0.97 1.7 0 1.31c0,0.08 0.05,0.12 0.12,0.12l0.52 0c0.07,0 0.11,-0.04 0.11,-0.12l0 -1.31 0.97 -1.7c0.05,-0.08 0.01,-0.14 -0.08,-0.14z"/>
 </g>
</svg>
