<svg xmlns="http://www.w3.org/2000/svg" xmlns:xlink="http://www.w3.org/1999/xlink" width="608" height="508" viewBox="0 0 608 508"><defs><filter id="platform-header-a" width="155.8%" height="193.5%" x="-27.9%" y="-46.8%" filterUnits="objectBoundingBox"><feGaussianBlur in="SourceGraphic" stdDeviation="24"/></filter><filter id="platform-header-b" width="108.1%" height="117%" x="-4%" y="-8.2%" filterUnits="objectBoundingBox"><feGaussianBlur in="SourceGraphic" stdDeviation="6"/></filter><filter id="platform-header-d" width="218.1%" height="187%" x="-59.1%" y="-31.1%" filterUnits="objectBoundingBox"><feOffset dy="2" in="SourceAlpha" result="shadowOffsetOuter1"/><feGaussianBlur in="shadowOffsetOuter1" result="shadowBlurOuter1" stdDeviation="2"/><feColorMatrix in="shadowBlurOuter1" values="0 0 0 0 0.723420516 0 0 0 0 0.651423082 0 0 0 0 0.687845313 0 0 0 1 0"/></filter><filter id="platform-header-g" width="118.4%" height="141.1%" x="-9.2%" y="-20.6%" filterUnits="objectBoundingBox"><feGaussianBlur in="SourceGraphic" stdDeviation="4.919"/></filter><filter id="platform-header-h" width="123.3%" height="155.3%" x="-11.7%" y="-27.6%" filterUnits="objectBoundingBox"><feGaussianBlur in="SourceGraphic" stdDeviation="2.951"/></filter><filter id="platform-header-i" width="128%" height="158.6%" x="-14%" y="-29.3%" filterUnits="objectBoundingBox"><feGaussianBlur in="SourceGraphic" stdDeviation="1.967"/></filter><filter id="platform-header-j" width="133.9%" height="158.6%" x="-17%" y="-29.3%" filterUnits="objectBoundingBox"><feGaussianBlur in="SourceGraphic" stdDeviation=".984"/></filter><linearGradient id="platform-header-c" x1="29.824%" x2="74.433%" y1="58.18%" y2="41.199%"><stop offset="0%" stop-color="#FAF7FE"/><stop offset="100%" stop-color="#FFF"/></linearGradient><linearGradient id="platform-header-f" x1="25.131%" x2="52.112%" y1="21.098%" y2="44.528%"><stop offset="0%" stop-color="#B08AFF"/><stop offset="100%" stop-color="#FFF"/></linearGradient><path id="platform-header-e" d="M144.638 130.118h3.881v8.804h4.186v-8.804h3.783l-6.072-7.296z"/></defs><g fill="none" fill-rule="evenodd"><path fill="#A98DD4" fill-opacity=".238" filter="url(#platform-header-a)" d="M37.151 383.408l123.553-76.093 134.447 79.903-122.324 74.097z" transform="translate(1)"/><g transform="translate(227.604 261.623)"><path fill="#DACFEA" d="M29.068 128.998l165.533-97.31a7.884 7.884 0 018.114.075l160.957 98.6a4.172 4.172 0 01-.076 7.16L198.68 233.817 29.102 136.21a4.172 4.172 0 01-.034-7.212z" filter="url(#platform-header-b)"/><path fill="url(#platform-header-c)" d="M6.309 94.937l158.56-92.635a7.884 7.884 0 017.9-.031l190.765 109.423a4.172 4.172 0 01.004 7.235l-161.068 92.65L6.38 102.183a4.172 4.172 0 01-.071-7.246z"/><path fill="#EBE2FF" d="M60.973 88.176l92.055-56.245a17.194 17.194 0 0117.302-.365l69.31 38.429a9.17 9.17 0 01.406 15.8l-90.479 56.427a17.194 17.194 0 01-17.335.504l-70.87-38.675a9.17 9.17 0 01-.39-15.875zM245.335 98.288l20.319-11.165 58.419 33.245-19.967 11.155zM214.211 116.595l20.318-11.165 58.419 33.245-19.967 11.155z"/><path fill="#A887F1" d="M154.708 155.039l20.318-11.164 41.016 22.2-19.968 11.155z"/><path fill="#CD2379" d="M146.012 69.732c8.342 0 15.104-5.328 15.104-11.9 0-6.571-6.762-11.899-15.104-11.899-8.342 0-15.105 5.328-15.105 11.9 0 6.571 6.763 11.899 15.105 11.899z"/><path fill="#FCFBFF" fill-rule="nonzero" d="M137.315 60.743l12.015-6.667-.089-.073-4.287-.082 2.938-1.581 4.517.11 1.476 1.22-15.089 8.308z"/><path fill="#CD2379" d="M289.735 131.06c8.342 0 15.104-5.328 15.104-11.9 0-6.571-6.762-11.899-15.104-11.899-8.342 0-15.105 5.328-15.105 11.9 0 6.571 6.763 11.899 15.105 11.899z"/><path fill="#FFFEFF" fill-rule="nonzero" d="M288.439 114.023c2.585-1.562 6.076-1.694 8.598-.335 2.434 1.312 2.528 3.196.23 4.584-1.455.88-3.393 1.265-7.592 1.492l-4.669.27-.166.101 5.109 2.754-2.326 1.406-8.416-4.536 1.955-1.182 8.08-.53c3.476-.224 4.584-.421 5.455-.948 1.075-.65 1.075-1.518.008-2.093-1.132-.61-2.76-.513-3.993.231l-.056.034-2.264-1.22.047-.028z"/><path fill="#FFF" stroke="#CD2379" stroke-width="2.746" d="M150.588 143.875c8.342 0 15.105-5.328 15.105-11.9s-6.763-11.9-15.105-11.9-15.104 5.328-15.104 11.9 6.762 11.9 15.104 11.9z"/><path fill="#DCC7FC" d="M4.577 100.688L202.31 211.579v8.283L4.577 109.66z"/><path fill="#DBC4FF" d="M202.31 212.3l163.196-94.221v7.443L202.31 220.693z"/><use fill="#000" filter="url(#platform-header-d)" xlink:href="#platform-header-e"/><use fill="#CD2379" xlink:href="#platform-header-e"/></g><g transform="translate(192.573)"><path fill="#DCCAF7" d="M0 232.332V94.861l8.694 3.596V236.69z"/><path fill="#FFF" d="M9.161 97.245L176.23 3.34a.915.915 0 011.364.798V182.5a.915.915 0 01-.462.795L10.062 278.401a.915.915 0 01-1.368-.796V98.043c0-.33.179-.636.467-.798z"/><path fill="#E4D7FF" d="M33.828 119.412l74.909-41.838a3.662 3.662 0 015.447 3.197v105.035c0 4.93-2.644 9.483-6.927 11.927l-74.989 42.78a3.662 3.662 0 01-5.476-3.18V131.4c0-4.976 2.692-9.562 7.036-11.988z"/><ellipse cx="51.79" cy="142.593" fill="#FFF" rx="6.69" ry="10.034" transform="rotate(11 51.79 142.593)"/><path fill="#FAF6FF" d="M0 94.861L168.92.164l8.673 2.408L9.697 98.457z"/><path fill="#BBA2EE" d="M98.981 182.871l-47.155 27.21a4.577 4.577 0 01-6.79-4.783l6.752-37.185a4.577 4.577 0 018.014-2.12l5.601 6.693a4.577 4.577 0 007.893-1.618l7.401-24.582a4.577 4.577 0 018.671-.282l11.614 31.101a4.577 4.577 0 01-2 5.566z"/><path fill="#EBE2FF" d="M120.166 71.701l46.451-27.015v13.273l-46.451 27.373zM120.166 100.077l46.451-27.015v13.273l-46.451 27.372z"/><path fill="#CD2379" d="M197.978 193.607l31.029-20.316v20.596l-31.029 20.674z"/><path fill="#FFC7E3" opacity=".4" d="M197.978 106.65l46.45-27.015v13.273l-46.45 27.373zM197.978 135.025l46.45-27.014v13.273l-46.45 27.372z"/></g><path stroke="#CD2379" stroke-dasharray="2.746 2.746" stroke-width=".915" d="M353.883 140.3l67.742 34.783m-97.951-14.646l67.742 34.783m-67.742-15.645l67.742 34.783"/><path fill="url(#platform-header-f)" d="M224.436 119.93l74.239-41.713a8.239 8.239 0 017.877-.106l64.232 33.853-1.618 95.625-150.801 84.553V130.305a11.9 11.9 0 016.071-10.375z" style="mix-blend-mode:multiply" transform="translate(1)"/><g transform="translate(287.107 109.676)"><path fill="#FF91C9" d="M7.063 44.622l74.889-41.6a3.662 3.662 0 015.44 3.2v104.386c0 4.943-2.657 9.504-6.955 11.943L5.469 165.088A3.662 3.662 0 010 161.903V56.626c0-4.987 2.704-9.582 7.063-12.004z"/><ellipse cx="24.998" cy="67.693" fill="#FFCDE7" rx="6.688" ry="9.981" transform="rotate(11 24.998 67.693)"/><path fill="#FFCDE7" d="M72.355 107.659l-47.325 27.16a4.577 4.577 0 01-6.781-4.793l6.746-36.945A4.577 4.577 0 0133 90.956l5.784 6.874a4.577 4.577 0 007.848-1.509l8.852-26.74a4.577 4.577 0 018.713.068l10.247 32.67a4.577 4.577 0 01-2.09 5.34z"/></g><path fill="#FFF" d="M7.705 265.082l158.581-92.648a7.884 7.884 0 018.012.034l147.881 88.093a4.172 4.172 0 01-.055 7.2L160.937 360.48 7.728 272.3a4.172 4.172 0 01-.023-7.218z"/><path fill="#EEEBF2" d="M63.527 248.788l72.527-43.216a13.731 13.731 0 0114.079.013l53.882 32.238a7.323 7.323 0 01.052 12.537l-70.443 42.954a13.731 13.731 0 01-13.972.193l-56.015-32.072a7.323 7.323 0 01-.11-12.647zM204.719 259.769l16.139-8.965 49.304 30.724-15.391 9.7zM180.002 275.329l16.139-8.964 49.304 30.724-15.391 9.7z"/><path fill="#E9DEF8" d="M142.469 303.561l19.74-10.651 33.294 19.889-18.991 11.386z"/><path fill="#3D1297" fill-opacity=".543" d="M7.705 265.082l158.581-92.648a7.884 7.884 0 018.012.034l147.881 88.093a4.172 4.172 0 01-.055 7.2L160.937 360.48 7.728 272.3a4.172 4.172 0 01-.023-7.218z"/><g opacity=".9"><path fill="#3D4EBA" d="M81.799 3.428c10.95 3.034 79.275 6.389 78.89 25.004-.384 18.614-57.93 11.16-78.69 24.026-9.836 6.096-44.179 6.223-49.708 15.975C26.152 79.26 4.628 62.49 1.663 56.913c-4.511-8.481 4.996-13.78 5.629-18.339C8.682 28.553 23.18 15.771 33.48 6.604 43.78-2.564 52.142-.042 63.092 2.99l18.707.437z" filter="url(#platform-header-g)" opacity=".512" transform="rotate(28 -312.1 337.591)"/><path fill="#26ECC1" d="M24.696 45.506c6.722 7.29 28.32.451 36.183-2.575 7.862-3.027 27.692-2.835 32.508-4.659 4.817-1.823 5.368-8.863 3.23-13.883-2.138-5.02-25.52-2.557-37.212-3.108-11.692-.551-21.675-8.723-28.393-1.79-6.718 6.935-13.038 18.725-6.316 26.015z" filter="url(#platform-header-h)" opacity=".7" transform="rotate(28 -312.1 337.591)"/><path fill="#FFDC00" d="M36.733 22.271c-3.5 4.622-10.406 12.393-4.562 16.401 5.845 4.008 22.283 1.458 27.217-.864 4.934-2.322 7.704 3.314 10.732 1.91 3.028-1.404 2.043-11.638-.26-14.552-2.303-2.914-8.344-1.613-16.513-1.225-8.168.388-13.114-6.292-16.614-1.67z" filter="url(#platform-header-i)" opacity=".8" transform="rotate(28 -312.1 337.591)"/><path fill="#CD2379" d="M48.868 29.876c-2.11-1.595-5.438-4.845-7.119-2.863-1.681 1.982-5.748 5.561-2.613 7.931 3.135 2.37 14.737 1.621 16.06.06 1.323-1.56-5.01-5.122-7.12-6.717l.792 1.589z" filter="url(#platform-header-j)" transform="rotate(28 -312.1 337.591)"/></g><path fill="#6926F8" d="M170.741 184.638c1.517 0 2.747-.966 2.747-2.158 0-1.191-1.23-2.157-2.747-2.157-1.516 0-2.746.966-2.746 2.157 0 1.192 1.23 2.158 2.746 2.158zm8.267 4.576c1.517 0 2.746-.966 2.746-2.157 0-1.192-1.23-2.158-2.746-2.158-1.517 0-2.746.966-2.746 2.158 0 1.191 1.23 2.157 2.746 2.157zm7.999 4.577c1.516 0 2.746-.966 2.746-2.157 0-1.192-1.23-2.158-2.746-2.158-1.517 0-2.747.966-2.747 2.158 0 1.191 1.23 2.157 2.747 2.157z"/><path fill="#D9BEFF" d="M6.07 270.776l155.623 88.742v8.284L6.07 279.748z"/><path fill="#A590C5" d="M160.778 360.324l163.285-94.317v7.443l-163.285 95.268z"/><g fill="#6926F8" transform="translate(217.534 93.2)"><ellipse cx="2.817" cy="10.914" rx="2.113" ry="3.169" transform="rotate(11 2.817 10.914)"/><ellipse cx="9.154" cy="7.393" rx="2.113" ry="3.169" transform="rotate(11 9.154 7.393)"/><ellipse cx="15.492" cy="3.873" rx="2.113" ry="3.169" transform="rotate(11 15.492 3.873)"/></g><path stroke="#CD2379" stroke-dasharray="2.746 2.746" stroke-width=".915" d="M220.35 127.53l66.757 31.554m16.935-81.903l67.742 34.783"/><g><path fill="#371D6E" fill-rule="nonzero" d="M265.402 197.462L262.677 199 259 187.203l2.556-1.33 2.469 9.15.134-.075 2.405-11.68L269 182l-3.598 15.462zm7.336-4.462l.019-10.97-.133.075-2.624 3.808.002-2.706 2.767-3.987L275 178l-.032 13.677-2.23 1.323z"/><path stroke="#371D6E" stroke-linecap="round" stroke-linejoin="round" d="M279.5 179.5l8-5"/></g><path fill="#FFF" d="M465.172 156.622l95.257 55.323a12.816 12.816 0 016.38 11.083v93.799a6.408 6.408 0 01-9.596 5.559l-95.227-54.611a12.816 12.816 0 01-6.44-11.118v-94.493a6.408 6.408 0 019.626-5.542z"/><path fill="#9872E7" fill-rule="nonzero" d="M501.737 271.575v-12.17l-.153-.086-3.013.876v-2.976l3.175-.923 2.561 1.453v15.283l-2.57-1.457zm5.83-7.403c0-2.955 1.821-3.935 4.477-2.43 2.562 1.452 4.349 4.298 4.349 6.925 0 1.663-.724 2.682-2.851 3.965l-2.35 1.454v.19l5.38 3.05v2.658l-8.86-5.022v-2.235l4.008-2.61c1.728-1.118 2.162-1.666 2.162-2.662 0-1.228-.8-2.55-1.923-3.187-1.192-.676-2.009-.164-2.009 1.244v.064l-2.383-1.351v-.053zm20.92 10.8c0 2.33-1.158 3.23-2.877 2.256-1.71-.97-2.877-3.188-2.877-5.518 0-2.309 1.158-3.21 2.877-2.235 1.72.975 2.877 3.177 2.877 5.497zm-2.877.222c.596.338.979-.154.979-1.298 0-1.165-.366-2.061-.979-2.409-.604-.342-.979.155-.979 1.3 0 1.143.383 2.07.979 2.407zm.877 10.411l-2.4-1.36 4.638-5.378 3.694-5.183 2.391 1.356-4.715 5.398-3.608 5.167zm9.617 1.925c0 2.32-1.158 3.22-2.877 2.246-1.71-.97-2.868-3.183-2.868-5.503 0-2.32 1.158-3.22 2.868-2.25 1.72.974 2.877 3.177 2.877 5.507zm-2.877.212c.596.338.979-.155.979-1.299 0-1.165-.366-2.05-.979-2.397-.604-.343-.979.144-.979 1.288 0 1.144.383 2.07.98 2.408z"/><path fill="#F8F4FD" d="M471.88 181.01l76.185 43.578a7.323 7.323 0 013.687 6.357v35.073a2.746 2.746 0 01-4.12 2.378l-76.203-44.025a7.323 7.323 0 01-3.66-6.34v-34.637a2.746 2.746 0 014.11-2.384z"/><g stroke-linecap="round" stroke-linejoin="round" stroke-width="2.746"><path stroke="#6926F8" d="M476.6 219.043l17.228-3.194 14.032 17.258 31.602-8.629"/><path stroke="#CD2379" d="M476.6 203.206l14.131 23.998 27.169-10.776 21.562 36.194"/></g><path fill="#6926F8" d="M480.064 259.551l10.089 5.922a.915.915 0 001.34-1.052l-5.045-16.8a.915.915 0 00-1.707-.122l-5.044 10.878a.915.915 0 00.367 1.174z"/><path stroke="#CD2379" stroke-dasharray="2.746 2.746" stroke-width="1.831" d="M380.938 327.889l124.499 50.898m-114.021 18.307l111.275-14.938"/></g></svg>