<?xml version="1.0" encoding="UTF-8"?>
<!DOCTYPE svg PUBLIC "-//W3C//DTD SVG 1.1//EN" "http://www.w3.org/Graphics/SVG/1.1/DTD/svg11.dtd">
<!-- Creator: CorelDRAW -->
<svg xmlns="http://www.w3.org/2000/svg" xml:space="preserve" width="0.241992in" height="0.171004in" style="shape-rendering:geometricPrecision; text-rendering:geometricPrecision; image-rendering:optimizeQuality; fill-rule:evenodd; clip-rule:evenodd"
viewBox="0 0 0.241992 0.171004"
 xmlns:xlink="http://www.w3.org/1999/xlink">
 <defs>
  <style type="text/css">
   <![CDATA[
    .fil0 {fill:#01A4CD}
    .fil2 {fill:#455256}
    .fil1 {fill:#1B91BF}
    .fil3 {fill:#01A4CD;fill-rule:nonzero}
   ]]>
  </style>
 </defs>
 <g id="Layer_x0020_1">
  <metadata id="CorelCorpID_0Corel-Layer"/>
  <g id="_107610920">
   <g>
    <path id="_107611568" class="fil0" d="M0.100398 0.00153543c0,0 -6.69291e-005,-0.00088189 0.000787402,-0.00096063l0.00662205 -3.93701e-005 0.00598425 -8.66142e-005 0.0165236 -0.000145669c0,0 0.0182795,-0.000669291 0.0252047,0.0124409 0,0 0.00537008,0.0102244 0.0019685,0.0240512 0,0 -0.00252362,0.0111614 -0.0127126,0.0155276l0.0176732 0.0345945 -0.019748 7.87402e-005 -0.0149331 -0.0311654 -0.00974016 4.72441e-005 0 0.031185 -0.0135669 0.000169291 -0.00827165 0.000125984 -0.00128346 -1.9685e-005c0,0 -0.00671654,0.000192913 -0.00794488,-0.00880709l-1.5748e-005 -0.0123386 -0.00994094 0 0.00419685 -0.00454331 -0.00419685 -0.00454724 0.00994094 0 0 -0.0362165 0 -0.0165827c0,0 -0.000169291,-0.00192126 0.00143701,-0.00344882 0,0 0.000653543,-0.000590551 0.00135039,-0.000834646 0,0 0.000779528,-0.000232283 0.000724409,0.000850394 -5.51181e-005,0.00108661 0,0.0562323 0,0.0562323l0.00321654 0 0 0.00909055 -0.00321654 0 0 0.0114685c0,0 -0.000291339,0.00519291 0.00448819,0.00592913 0,0 0.00287795,0.000397638 0.0046811,-0.00253543 0,0 0.000771654,-0.00116929 0.000771654,-0.00284252l0 -0.00243701 0 -0.0343701c0,0 0,-0.0399567 0,-0.0398701zm0.0175945 0.0143228l0 0.0243583 0.0104646 -3.14961e-005c0,0 0.0112362,0.000299213 0.0127165,-0.0100512 0,0 0.00170866,-0.00881496 -0.00417717,-0.0122244 0,0 -0.00290945,-0.0020315 -0.0089685,-0.00203937 0.00605906,7.87402e-006 -0.0100354,-1.1811e-005 -0.0100354,-1.1811e-005z"/>
    <path id="_107611496" class="fil1" d="M0.0948465 0.0799016c0,0 0,0.000507874 0.000472441,0.000594488 0,0 0.000562992,7.48031e-005 0.000614173,-0.000594488l0 -0.0490945 0 -0.0276811c0,0 3.54331e-005,-0.00034252 -0.000240157,-0.000547244 0,0 -0.000181102,-0.000173228 -0.000476378,-7.48031e-005 0,0 -0.000311024,9.05512e-005 -0.000366142,0.000515748l-3.93701e-006 3.54331e-005c0,0 0,0.0768425 0,0.0768465z"/>
    <path id="_104455064" class="fil1" d="M0.0977402 0.0788661c0,0 0.000909449,1.1811e-005 0.00108661,-0.00112598l0 -0.0507795 0 -0.0238858c0,0 -3.93701e-006,-0.000555118 -0.000547244,-0.000602362 0,0 -0.000484252,-7.87402e-006 -0.00053937,0.000574803l0 0.0570197 0 0.0187992z"/>
    <path id="_104451920" class="fil1" d="M0.0930394 0.0788583c0,0 -0.000913386,1.5748e-005 -0.00108661,-0.00112598l0 -0.0103819 0.00108661 0 0 0.0115079zm-0.00108661 -0.0229016l0 -0.0290039 0 -0.0238819c0,0 0,-0.000555118 0.000543307,-0.000602362 0,0 0.000484252,-1.1811e-005 0.00053937,0.000574803l3.93701e-006 0.0529134 -0.00108661 0z"/>
   </g>
   <path id="_107606120" class="fil2" d="M0.0359685 0.139319l-0.00460236 0c-0.000255906,-0.00267323 -0.00127953,-0.00506299 -0.00305512,-0.00716142 -0.0015748,-0.00184646 -0.00361417,-0.00330709 -0.0061063,-0.0043937 -0.00198031,0.000259843 -0.00384646,0.000385827 -0.00559449,0.000385827 -0.00251969,0 -0.00484646,-0.000177165 -0.00697244,-0.000527559l0.000858268 -0.00501575c0.00189764,0.000318898 0.00393307,0.000476378 0.00611417,0.000476378 0.00249213,0 0.00513386,-0.000350394 0.00791339,-0.00105118 0.00384646,-0.000952756 0.00581102,-0.00230709 0.0058937,-0.00405118 0.000114173,-0.00188189 0.000173228,-0.00441339 0.000173228,-0.00759843 0,-0.000952756 -2.75591e-005,-0.00165354 -8.26772e-005,-0.00209449 -0.000232283,-0.00168898 -0.00200787,-0.00293307 -0.00533465,-0.00372835 -0.00220866,-0.000507874 -0.00463386,-0.000759843 -0.00727559,-0.000759843 -0.00266535,0 -0.00524803,0.000318898 -0.00774016,0.000952756 -0.00372441,0.000917323 -0.00559449,0.00232283 -0.00559449,0.00420079l0 0.0303661 -0.00456299 0 0 -0.0301299c0,-0.00461417 0.00264567,-0.00768898 0.00792913,-0.00920866 0.00289764,-0.000826772 0.0062874,-0.00124409 0.0101654,-0.00124409 0.00330315,0 0.0060315,0.000267717 0.00818504,0.000811024 0.00577165,0.00140157 0.00865748,0.00428346 0.00865748,0.0086378 0,0.00105512 0,0.00264961 0,0.00477953 0,0.00212992 0,0.00372835 0,0.00477165 0,0.00331102 -0.00193701,0.00611811 -0.00580709,0.00840551 0.00424016,0.00404724 0.00652362,0.00843307 0.00683858,0.0131772zm0.20324 -0.0271732c-0.00152362,0.00451969 -0.00312598,0.00872441 -0.0048189,0.0126102 -0.00429921,0.00983465 -0.00805512,0.0147559 -0.0112717,0.0147559 -0.00301181,0 -0.00631102,-0.00377559 -0.0098937,-0.0113386 -0.0021811,-0.00449606 -0.00424409,-0.00987008 -0.00619685,-0.0161181l0.00429921 -0.00172047c0.00151969,0.00449213 0.00320079,0.00880709 0.00503937,0.0129173 0.00266535,0.0060315 0.00491339,0.00971654 0.00675197,0.0110551 0.00180709,-0.00149606 0.00404331,-0.00520472 0.00671654,-0.0111299 0.00177559,-0.00397638 0.00347638,-0.00825591 0.00511811,-0.0128425l0.00425591 0.00181102zm-0.037437 0.00783858l0 0.0193346 -0.00451575 0 0 -0.0193346c0,-0.00159449 -0.00147638,-0.00285039 -0.00442913,-0.00377559 -0.0024685,-0.000759843 -0.00527559,-0.00114567 -0.00842913,-0.00114567 -0.00313386,0 -0.0059252,0.000385827 -0.00838976,0.00114567 -0.00295669,0.000925197 -0.00443307,0.0021811 -0.00443307,0.00377559l0 0.00946063c0,0.00161811 0.00146063,0.00288976 0.00438976,0.0038189 0.00246063,0.000759843 0.00527559,0.00114173 0.00843307,0.00114173 0.00246063,0 0.00480315,-0.000224409 0.00700787,-0.000677165l0.000948819 0.00502362c-0.00244094,0.000507874 -0.00509055,0.000759843 -0.00795669,0.000759843 -0.0115591,0 -0.0173425,-0.00335827 -0.0173425,-0.0100748l0 -0.00945276c0,-0.00668504 0.00578346,-0.0100276 0.0173425,-0.0100276 0.0115866,0 0.017374,0.00334252 0.017374,0.0100276zm-0.0422835 0.0193346l-0.00455906 0 0 -0.0187165c0,-0.00159449 -0.00149213,-0.00285039 -0.00447244,-0.00377559 -0.0025,-0.000728346 -0.00532283,-0.00109449 -0.00848031,-0.00109449 -0.00317717,0 -0.00600787,0.000366142 -0.0084685,0.00109449 -0.00301181,0.000925197 -0.00451969,0.0021811 -0.00451969,0.00377559l0 0.0187165 -0.00456299 0 0 -0.0405827 0.00456299 0 0 0.0143228c0.00390157,-0.00159843 0.00823228,-0.00238976 0.0129961,-0.00238976 0.0116693,0 0.0175039,0.00330709 0.0175039,0.00993307l0 0.0187165zm-0.0417756 0.00238976c0,0.00652756 -0.00576772,0.0097874 -0.0172953,0.0097874 -0.00283858,0 -0.00548031,-0.000251969 -0.00791339,-0.000759843l0.000940945 -0.00487402c0.00218504,0.000444882 0.00451181,0.000669291 0.00697244,0.000669291 0.00312598,0 0.00590945,-0.000385827 0.00835039,-0.00114567 0.00298031,-0.000893701 0.00447244,-0.00211417 0.00447244,-0.00367717l0 -0.0219685c0,-0.00155906 -0.00147638,-0.00279921 -0.00443701,-0.00372441 -0.00246063,-0.000728346 -0.00525984,-0.00109449 -0.00838583,-0.00109449 -0.00315354,0 -0.00595669,0.000366142 -0.00838583,0.00109449 -0.00296063,0.000925197 -0.00443701,0.00216535 -0.00443701,0.00372441l0 0.00926772c0,0.00156299 0.00146063,0.00278346 0.00438976,0.00367717 0.00244094,0.000759843 0.00524803,0.00114567 0.00843307,0.00114567 0.00244094,0 0.00475197,-0.000208661 0.0069252,-0.00061811l0.000948819 0.0048189c-0.00243701,0.000511811 -0.00506693,0.00076378 -0.00787402,0.00076378 -0.0115276,0 -0.0172953,-0.00325984 -0.0172953,-0.0097874l0 -0.00926772c0,-0.00652362 0.00576772,-0.00978346 0.0172953,-0.00978346 0.0115276,0 0.0172953,0.00325984 0.0172953,0.00978346l0 0.0219685zm-0.0410039 -0.0217244l0 0.0193346 -0.00451969 0 0 -0.0193346c0,-0.00159449 -0.00147244,-0.00285039 -0.0044252,-0.00377559 -0.0024685,-0.000759843 -0.00527953,-0.00114567 -0.00843307,-0.00114567 -0.00313386,0 -0.0059252,0.000385827 -0.00838583,0.00114567 -0.00296063,0.000925197 -0.00443701,0.0021811 -0.00443701,0.00377559l0 0.00946063c0,0.00161811 0.00146063,0.00288976 0.00438976,0.0038189 0.00246457,0.000759843 0.00527953,0.00114173 0.00843307,0.00114173 0.00246063,0 0.00480315,-0.000224409 0.00700787,-0.000677165l0.000948819 0.00502362c-0.00243701,0.000507874 -0.00508661,0.000759843 -0.00795669,0.000759843 -0.0115551,0 -0.0173386,-0.00335827 -0.0173386,-0.0100748l0 -0.00945276c0,-0.00668504 0.00578346,-0.0100276 0.0173386,-0.0100276 0.0115866,0 0.017378,0.00334252 0.017378,0.0100276z"/>
   <path id="_107611352" class="fil3" d="M0.129378 0.170024l-0.00444488 -0.0151535c-8.66142e-005,-0.000326772 -0.000314961,-0.000492126 -0.000610236,-0.000492126l-0.00335433 0c-0.000295276,0 -0.000523622,0.000165354 -0.000610236,0.000492126l-0.00444488 0.0151535c-0.000125984,0.00042126 6.29921e-005,0.000653543 0.000440945,0.000653543l0.00257874 0c0.000295276,0 0.000503937,-0.000141732 0.000586614,-0.000488189l0.000551181 -0.0020748 0.00514961 0 0.000551181 0.0020748c8.26772e-005,0.000346457 0.000295276,0.000488189 0.000586614,0.000488189l0.00257874 0c0.000377953,0 0.000566929,-0.000232283 0.000440945,-0.000653543zm-0.00837402 -0.00540157l0.00164173 -0.00616929 0.00164173 0.00616929 -0.00328346 0zm0.020815 0.00637795c0.00337795,0 0.00625197,-0.00237402 0.00707087,-0.00577165 8.26772e-005,-0.000374016 -0.000106299,-0.000606299 -0.000464567,-0.000606299l-0.00247244 0c-0.000295276,0 -0.000464567,0.000165354 -0.000590551,0.000468504 -0.000586614,0.00141732 -0.00194882,0.00227953 -0.00354331,0.00227953 -0.00260236,0 -0.00427953,-0.00193307 -0.00427953,-0.00484252 0,-0.00290945 0.00167717,-0.00484252 0.00427953,-0.00484252 0.00159449,0 0.00295669,0.000862205 0.00354331,0.00228346 0.000125984,0.000299213 0.000295276,0.000464567 0.000590551,0.000464567l0.00247244 0c0.000358268,0 0.000547244,-0.000255906 0.000464567,-0.000653543 -0.000862205,-0.00339764 -0.00371654,-0.00572441 -0.00707087,-0.00572441 -0.0044252,0 -0.00763386,0.00367717 -0.00763386,0.00847244 0,0.00479528 0.00320866,0.00847244 0.00763386,0.00847244zm0.0253622 -0.000976378l-0.00444882 -0.0151535c-8.26772e-005,-0.000326772 -0.000314961,-0.000492126 -0.000606299,-0.000492126l-0.00335827 0c-0.000295276,0 -0.000523622,0.000165354 -0.000606299,0.000492126l-0.00444882 0.0151535c-0.000125984,0.00042126 6.29921e-005,0.000653543 0.000440945,0.000653543l0.00257874 0c0.000295276,0 0.000503937,-0.000141732 0.000586614,-0.000488189l0.000555118 -0.0020748 0.00514567 0 0.000551181 0.0020748c8.66142e-005,0.000346457 0.000295276,0.000488189 0.000586614,0.000488189l0.00258268 0c0.000377953,0 0.000566929,-0.000232283 0.000440945,-0.000653543zm-0.00837795 -0.00540157l0.00164173 -0.00616929 0.00164567 0.00616929 -0.0032874 0zm0.0208386 -0.0102441l-0.00293701 0 -0.00283465 0c-0.000334646,0 -0.000523622,0.000212598 -0.000523622,0.000582677l0 0.0151339c0,0.000370079 0.000188976,0.000582677 0.000523622,0.000582677l0.000527559 0 0.00524409 0c0.00404724,0 0.00712992,-0.00353937 0.00712992,-0.00814961 0,-0.00461024 -0.00308268,-0.00814961 -0.00712992,-0.00814961zm0 0.0127126l-0.00293701 0 0 -0.00912598 0.00293701 0c0.00230709,0 0.00390157,0.00176772 0.00390157,0.00456299 0,0.00279528 -0.00159449,0.00456299 -0.00390157,0.00456299zm0.0220236 0l-0.00492913 0 0 -0.00290945 0.00429921 0c0.000334646,0 0.000523622,-0.000208661 0.000523622,-0.000582677l0 -0.00232677c0,-0.000374016 -0.000188976,-0.000582677 -0.000523622,-0.000582677l-0.00429921 0 0 -0.00272441 0.00482283 0c0.000338583,0 0.000527559,-0.000208661 0.000527559,-0.000582677l0 -0.00242126c0,-0.000370079 -0.000188976,-0.000582677 -0.000527559,-0.000582677l-0.00482283 0 -0.00283071 0c-0.000338583,0 -0.000527559,0.000212598 -0.000527559,0.000582677l0 0.0151339c0,0.000370079 0.000188976,0.000582677 0.000527559,0.000582677l0.000523622 0 0.00723622 0c0.000334646,0 0.000523622,-0.000212598 0.000523622,-0.000582677l0 -0.00242126c0,-0.000374016 -0.000188976,-0.000582677 -0.000523622,-0.000582677zm0.0212913 -0.0127126l-0.00111024 0 -0.00170079 0c-0.000291339,0 -0.000503937,0.000141732 -0.000606299,0.000444882l-0.00340157 0.00896063 -0.00339764 -0.00896063c-0.000102362,-0.00030315 -0.000314961,-0.000444882 -0.000606299,-0.000444882l-0.000503937 0 -0.00230709 0c-0.000334646,0 -0.000523622,0.000212598 -0.000523622,0.000582677l0 0.0151339c0,0.000370079 0.000188976,0.000582677 0.000523622,0.000582677l0.00230709 0c0.000334646,0 0.000523622,-0.000212598 0.000523622,-0.000582677l0 -0.00940945 0.00266535 0.00701181c0.000102362,0.00030315 0.000314961,0.000440945 0.000606299,0.000440945l0.00142913 0c0.000291339,0 0.000503937,-0.000137795 0.000606299,-0.000440945l0.00266535 -0.00701181 0 0.00940945c0,0.000370079 0.000188976,0.000582677 0.000523622,0.000582677l0.00230709 0c0.000334646,0 0.000523622,-0.000212598 0.000523622,-0.000582677l0 -0.0151339c0,-0.000370079 -0.000188976,-0.000582677 -0.000523622,-0.000582677zm0.0185866 0l-0.00268504 0c-0.000295276,0 -0.000484252,0.000141732 -0.000610236,0.00042126l-0.00238976 0.00508268 -0.00238976 -0.00508268c-0.000125984,-0.000279528 -0.000314961,-0.00042126 -0.000610236,-0.00042126l-0.00268504 0c-0.000397638,0 -0.000566929,0.000279528 -0.000358268,0.000700787l0.00436614 0.00846063 0 0.00655512c0,0.000370079 0.000188976,0.000582677 0.000523622,0.000582677l0.00230709 0c0.000334646,0 0.000523622,-0.000212598 0.000523622,-0.000582677l0 -0.00655512 0.0043622 -0.00846063c0.000212598,-0.00042126 4.33071e-005,-0.000700787 -0.000354331,-0.000700787z"/>
  </g>
 </g>
</svg>
