<?xml version="1.0" encoding="UTF-8"?>
<!DOCTYPE svg PUBLIC "-//W3C//DTD SVG 1.1//EN" "http://www.w3.org/Graphics/SVG/1.1/DTD/svg11.dtd">
<!-- Creator: CorelDRAW 2019 (64-Bit) -->
<svg xmlns="http://www.w3.org/2000/svg" xml:space="preserve" width="400px" height="100px" version="1.1" style="shape-rendering:geometricPrecision; text-rendering:geometricPrecision; image-rendering:optimizeQuality; fill-rule:evenodd; clip-rule:evenodd"
viewBox="0 0 400 100"
 xmlns:xlink="http://www.w3.org/1999/xlink">
 <defs>
  <style type="text/css">
   <![CDATA[
    .fil2 {fill:#01A4CD}
    .fil3 {fill:#405054}
    .fil0 {fill:#01A4CD;fill-rule:nonzero}
    .fil1 {fill:#405054;fill-rule:nonzero}
   ]]>
  </style>
 </defs>
 <g id="Layer_x0020_1">
  <metadata id="CorelCorpID_0Corel-Layer"/>
  <path class="fil0" d="M149.34 25.36l-13.67 0 0 -14.91 -15.53 0 0 14.91 -9.94 0 0 12.43 9.94 0 0 23.92c0,10.97 7.97,15.22 18.32,15.22 3.63,0 7.46,-0.31 10.88,-1.56l0 -12.94c-1.35,1.24 -4.66,1.45 -6.32,1.45 -6.73,0 -7.35,-3.93 -7.35,-9.32l0 -16.77 13.67 0 0 -12.43z"/>
  <path class="fil0" d="M155.53 50.43c0,16.05 12.42,26.41 27.95,26.41 15.53,0 27.96,-10.36 27.96,-26.41 0,-16.04 -12.43,-26.4 -27.96,-26.4 -15.53,0 -27.95,10.36 -27.95,26.4zm15.53 0c0,-7.55 4.66,-12.73 12.42,-12.73 7.77,0 12.43,5.18 12.43,12.73 0,7.56 -4.66,12.74 -12.43,12.74 -7.76,0 -12.42,-5.18 -12.42,-12.74z"/>
  <path class="fil0" d="M218.68 88.83l13.27 0 0 -24.76 0.17 0c3.01,4.16 8.14,5.66 13.62,5.66 12.2,0 19.63,-10.97 19.63,-22.9 0,-13 -8.4,-22.19 -21.13,-22.19 -6.02,0 -11.14,3.62 -13.18,6.72l-0.17 0 0 -5.66 -12.21 0 0 63.13zm12.21 -41.65c0,-6.45 3.98,-10.87 10.61,-10.87 6.63,0 10.61,4.42 10.61,10.87 0,6.46 -3.98,10.88 -10.61,10.88 -6.63,0 -10.61,-4.42 -10.61,-10.88z"/>
  <polygon class="fil1" points="272.81,75.54 286.1,75.54 286.1,8.33 272.81,8.33 "/>
  <path class="fil1" d="M322.67 75.53l12.31 0 0 -22.04c0,-14.46 -4.19,-22.4 -19.81,-22.4 -7.05,0 -14.18,2.32 -19.09,6.96l7.14 7.32c2.85,-3.21 6.51,-5.18 10.88,-5.18 4.64,0 8.57,3.04 8.57,7.77 -11.16,0 -29.36,0.26 -29.36,15.25 0,8.75 7.32,13.39 15.44,13.39 5.44,0 10.79,-1.88 13.74,-6.52l0.18 0 0 5.45zm0 -19.01l0 2.86c0,5.35 -4.91,8.12 -10.17,8.12 -2.95,0 -6.34,-1.52 -6.34,-4.73 0,-5.89 9.1,-6.25 13.21,-6.25l3.3 0z"/>
  <path class="fil1" d="M389.03 8l-13.48 0 0 28.96 -0.18 0c-3.06,-4.23 -8.28,-5.76 -13.85,-5.76 -12.41,0 -19.97,11.15 -19.97,23.29 0,13.22 8.55,22.57 21.5,22.57 6.11,0 11.33,-3.68 13.4,-6.83l0.17 0 0 5.75 12.41 0 0 -67.98zm-12.41 46.13c0,6.57 -4.04,11.06 -10.79,11.06 -6.74,0 -10.79,-4.49 -10.79,-11.06 0,-6.56 4.05,-11.06 10.79,-11.06 6.75,0 10.79,4.5 10.79,11.06z"/>
  <path class="fil2" d="M53.72 8.37c23.61,0 42.75,19.14 42.75,42.75 0,12.23 -5.13,23.25 -13.36,31.04l0 -12.27c3.47,-5.42 5.48,-11.86 5.48,-18.77 0,-17.62 -13.07,-32.18 -30.04,-34.53l0 48.36 -8.4 0 0 -48.52c-17.58,1.79 -31.3,16.64 -31.3,34.69 0,8.44 3,16.18 7.99,22.21l0 11.03c-9.68,-7.83 -15.87,-19.81 -15.87,-33.24 0,-23.61 19.14,-42.75 42.75,-42.75z"/>
  <path class="fil3" d="M35.4 29.64l8.39 0 0 53c3.19,0.96 6.57,1.48 10.08,1.48 7.88,0 15.16,-2.62 21,-7.03l0 9.4c-6.2,3.51 -13.37,5.51 -21,5.51 -6.62,0 -12.89,-1.51 -18.49,-4.19l0 -8.99 0.02 0.01 0 -49.19z"/>
 </g>
</svg>
