<?xml version="1.0" encoding="UTF-8"?>
<!DOCTYPE svg PUBLIC "-//W3C//DTD SVG 1.1//EN" "http://www.w3.org/Graphics/SVG/1.1/DTD/svg11.dtd">
<!-- Creator: CorelDRAW 2019 (64-Bit) -->
<svg xmlns="http://www.w3.org/2000/svg" xml:space="preserve" width="700px" height="250px" version="1.1" style="shape-rendering:geometricPrecision; text-rendering:geometricPrecision; image-rendering:optimizeQuality; fill-rule:evenodd; clip-rule:evenodd"
viewBox="0 0 700 250"
 xmlns:xlink="http://www.w3.org/1999/xlink">
 <defs>
  <style type="text/css">
   <![CDATA[
    .fil2 {fill:#01A4CD}
    .fil3 {fill:#405054}
    .fil0 {fill:#01A4CD;fill-rule:nonzero}
    .fil1 {fill:#405054;fill-rule:nonzero}
    .fil4 {fill:#766781;fill-rule:nonzero}
   ]]>
  </style>
 </defs>
 <g id="Layer_x0020_1">
  <metadata id="CorelCorpID_0Corel-Layer"/>
  <path class="fil0" d="M312.9 47.12l-21.24 0 0 -23.18 -24.14 0 0 23.18 -15.45 0 0 19.31 15.45 0 0 37.18c0,17.06 12.39,23.65 28.48,23.65 5.64,0 11.59,-0.48 16.9,-2.41l0 -20.12c-2.09,1.93 -7.24,2.26 -9.81,2.26 -10.47,0 -11.43,-6.12 -11.43,-14.49l0 -26.07 21.24 0 0 -19.31z"/>
  <path class="fil0" d="M322.22 86c0,24.8 19.21,40.81 43.22,40.81 24.01,0 43.21,-16.01 43.21,-40.81 0,-24.81 -19.2,-40.82 -43.21,-40.82 -24.01,0 -43.22,16.01 -43.22,40.82zm24.01 0c0,-11.69 7.2,-19.69 19.21,-19.69 12,0 19.2,8 19.2,19.69 0,11.68 -7.2,19.68 -19.2,19.68 -12.01,0 -19.21,-8 -19.21,-19.68z"/>
  <path class="fil0" d="M418.67 146.27l20.84 0 0 -38.89 0.28 0c4.72,6.53 12.77,8.89 21.38,8.89 19.17,0 30.84,-17.22 30.84,-35.98 0,-20.41 -13.2,-34.86 -33.2,-34.86 -9.44,0 -17.5,5.7 -20.69,10.56l-0.28 0 0 -8.89 -19.17 0 0 99.17zm19.17 -65.42c0,-10.14 6.25,-17.08 16.67,-17.08 10.41,0 16.67,6.94 16.67,17.08 0,10.14 -6.26,17.08 -16.67,17.08 -10.42,0 -16.67,-6.94 -16.67,-17.08z"/>
  <polygon class="fil1" points="503.55,124.7 523.96,124.7 523.96,21.46 503.55,21.46 "/>
  <path class="fil1" d="M580.2 125.4l19.11 0 0 -34.2c0,-22.44 -6.51,-34.76 -30.74,-34.76 -10.94,0 -22.02,3.6 -29.64,10.8l11.08 11.36c4.43,-4.99 10.11,-8.04 16.89,-8.04 7.21,0 13.3,4.71 13.3,12.05 -17.31,0 -45.56,0.42 -45.56,23.68 0,13.57 11.36,20.77 23.96,20.77 8.44,0 16.75,-2.91 21.32,-10.11l0.28 0 0 8.45zm0 -29.5l0 4.44c0,8.31 -7.62,12.6 -15.79,12.6 -4.57,0 -9.83,-2.36 -9.83,-7.34 0,-9.14 14.13,-9.7 20.5,-9.7l5.12 0z"/>
  <path class="fil1" d="M682.57 21l-20.61 0 0 44.25 -0.27 0c-4.67,-6.46 -12.64,-8.8 -21.16,-8.8 -18.96,0 -30.51,17.04 -30.51,35.59 0,20.2 13.06,34.49 32.84,34.49 9.35,0 17.32,-5.64 20.48,-10.45l0.27 0 0 8.8 18.96 0 0 -103.88zm-18.96 70.49c0,10.03 -6.18,16.9 -16.49,16.9 -10.3,0 -16.49,-6.87 -16.49,-16.9 0,-10.03 6.19,-16.9 16.49,-16.9 10.31,0 16.49,6.87 16.49,16.9z"/>
  <path class="fil2" d="M122.77 22.92c58.19,0 105.35,47.17 105.35,105.35 0,30.12 -12.64,57.29 -32.91,76.49l0 -30.25c8.54,-13.35 13.49,-29.21 13.49,-46.24 0,-43.42 -32.2,-79.3 -74.02,-85.1l0 119.17 -20.69 0 0 -119.55c-43.33,4.4 -77.14,40.99 -77.14,85.48 0,20.8 7.39,39.87 19.68,54.73l0 27.18c-23.85,-19.31 -39.11,-48.83 -39.11,-81.91 0,-58.18 47.17,-105.35 105.35,-105.35z"/>
  <path class="fil3" d="M77.63 75.33l20.69 0 0 130.6c7.86,2.37 16.19,3.65 24.82,3.65 19.43,0 37.36,-6.45 51.75,-17.33l0 23.18c-15.28,8.64 -32.94,13.57 -51.75,13.57 -16.31,0 -31.76,-3.71 -45.55,-10.33l0 -22.15 0.04 0.02 0 -121.21z"/>
  <path class="fil4" d="M409.22 207.75c0.63,0 1.17,0.24 1.63,0.73l4.56 4.94c-2.52,3.12 -5.62,5.52 -9.3,7.18 -3.68,1.66 -8.11,2.49 -13.26,2.49 -4.62,0 -8.75,-0.79 -12.44,-2.36 -3.68,-1.58 -6.83,-3.77 -9.43,-6.58 -2.61,-2.8 -4.6,-6.16 -5.99,-10.05 -1.39,-3.9 -2.09,-8.15 -2.09,-12.76 0,-4.67 0.77,-8.96 2.32,-12.84 1.54,-3.88 3.72,-7.22 6.53,-10.02 2.81,-2.81 6.17,-5 10.08,-6.56 3.91,-1.57 8.22,-2.34 12.95,-2.34 4.61,0 8.65,0.75 12.1,2.22 3.46,1.49 6.41,3.45 8.87,5.9l-3.87 5.37c-0.23,0.35 -0.51,0.65 -0.87,0.91 -0.36,0.25 -0.86,0.38 -1.49,0.38 -0.66,0 -1.33,-0.25 -2.02,-0.77 -0.69,-0.52 -1.56,-1.07 -2.62,-1.68 -1.06,-0.6 -2.39,-1.16 -4.01,-1.67 -1.62,-0.52 -3.68,-0.78 -6.17,-0.78 -2.93,0 -5.61,0.51 -8.06,1.52 -2.44,1.02 -4.55,2.48 -6.31,4.37 -1.76,1.88 -3.14,4.18 -4.13,6.89 -0.98,2.69 -1.49,5.74 -1.49,9.11 0,3.5 0.51,6.6 1.49,9.32 0.99,2.73 2.32,5 4.01,6.87 1.69,1.86 3.69,3.29 5.98,4.28 2.29,0.99 4.75,1.47 7.39,1.47 1.57,0 3.01,-0.08 4.28,-0.25 1.28,-0.18 2.45,-0.45 3.52,-0.82 1.08,-0.37 2.09,-0.85 3.05,-1.43 0.96,-0.59 1.91,-1.32 2.85,-2.18 0.29,-0.26 0.59,-0.46 0.91,-0.62 0.31,-0.15 0.66,-0.24 1.03,-0.24zm46.1 -11.13c0.49,0.92 0.95,1.86 1.37,2.85 0.41,0.99 0.81,1.99 1.21,2.99 0.4,-1.03 0.82,-2.04 1.25,-3.05 0.43,-1 0.89,-1.96 1.37,-2.87l18.4 -34.42c0.22,-0.43 0.47,-0.78 0.71,-1.04 0.25,-0.25 0.52,-0.44 0.82,-0.55 0.3,-0.12 0.63,-0.19 1,-0.22 0.37,-0.03 0.82,-0.04 1.33,-0.04l8.73 0 0 62.13 -10.19 0 0 -40.13c0,-0.74 0.03,-1.56 0.07,-2.45 0.05,-0.89 0.1,-1.79 0.19,-2.71l-18.78 35.24c-0.43,0.8 -0.99,1.42 -1.67,1.86 -0.69,0.44 -1.49,0.67 -2.41,0.67l-1.59 0c-0.92,0 -1.72,-0.23 -2.41,-0.67 -0.68,-0.44 -1.24,-1.06 -1.67,-1.86l-19.04 -35.37c0.12,0.95 0.2,1.87 0.25,2.77 0.04,0.9 0.05,1.75 0.05,2.52l0 40.13 -10.18 0 0 -62.13 8.72 0c0.52,0 0.96,0.01 1.33,0.04 0.38,0.03 0.72,0.1 1.02,0.22 0.3,0.11 0.57,0.3 0.83,0.55 0.26,0.26 0.5,0.61 0.73,1.04l18.56 34.5zm103.35 25.78l-8.94 0c-1,0 -1.82,-0.25 -2.46,-0.76 -0.65,-0.5 -1.12,-1.11 -1.41,-1.86l-4.64 -12.67 -25.74 0 -4.64 12.67c-0.23,0.66 -0.67,1.26 -1.34,1.81 -0.68,0.54 -1.51,0.81 -2.48,0.81l-8.98 0 24.4 -62.13 11.82 0 24.41 62.13zm-40.22 -23.42l19.81 0 -7.57 -20.66c-0.34,-0.92 -0.71,-2.01 -1.13,-3.26 -0.41,-1.24 -0.83,-2.59 -1.23,-4.05 -0.4,1.46 -0.79,2.82 -1.17,4.08 -0.39,1.26 -0.78,2.37 -1.15,3.31l-7.56 20.58z"/>
 </g>
</svg>
