<?xml version="1.0" encoding="UTF-8"?>
<!DOCTYPE svg PUBLIC "-//W3C//DTD SVG 1.1//EN" "http://www.w3.org/Graphics/SVG/1.1/DTD/svg11.dtd">
<!-- Creator: CorelDRAW 2019 (64-Bit) -->
<svg xmlns="http://www.w3.org/2000/svg" xml:space="preserve" width="700px" height="250px" version="1.1" style="shape-rendering:geometricPrecision; text-rendering:geometricPrecision; image-rendering:optimizeQuality; fill-rule:evenodd; clip-rule:evenodd"
viewBox="0 0 700 250"
 xmlns:xlink="http://www.w3.org/1999/xlink">
 <defs>
  <style type="text/css">
   <![CDATA[
    .fil2 {fill:#01A4CD}
    .fil3 {fill:#405054}
    .fil0 {fill:#01A4CD;fill-rule:nonzero}
    .fil1 {fill:#405054;fill-rule:nonzero}
    .fil4 {fill:#766781;fill-rule:nonzero}
   ]]>
  </style>
 </defs>
 <g id="Layer_x0020_1">
  <metadata id="CorelCorpID_0Corel-Layer"/>
  <path class="fil0" d="M311.83 44.87l-21.85 0 0 -23.85 -24.84 0 0 23.85 -15.9 0 0 19.87 15.9 0 0 38.25c0,17.55 12.75,24.34 29.31,24.34 5.79,0 11.92,-0.5 17.38,-2.48l0 -20.7c-2.15,1.99 -7.45,2.32 -10.1,2.32 -10.76,0 -11.75,-6.3 -11.75,-14.91l0 -26.82 21.85 0 0 -19.87z"/>
  <path class="fil0" d="M321.42 84.87c0,25.53 19.76,41.99 44.46,41.99 24.7,0 44.46,-16.46 44.46,-41.99 0,-25.52 -19.76,-41.99 -44.46,-41.99 -24.7,0 -44.46,16.47 -44.46,41.99zm24.7 0c0,-12.02 7.41,-20.25 19.76,-20.25 12.35,0 19.76,8.23 19.76,20.25 0,12.02 -7.41,20.26 -19.76,20.26 -12.35,0 -19.76,-8.24 -19.76,-20.26z"/>
  <path class="fil0" d="M420.65 146.88l21.44 0 0 -40.01 0.29 0c4.85,6.72 13.14,9.15 22,9.15 19.72,0 31.73,-17.72 31.73,-37.01 0,-21.01 -13.58,-35.87 -34.16,-35.87 -9.71,0 -18,5.86 -21.29,10.86l-0.29 0 0 -9.15 -19.72 0 0 102.03zm19.72 -67.3c0,-10.43 6.44,-17.58 17.15,-17.58 10.72,0 17.15,7.15 17.15,17.58 0,10.43 -6.43,17.57 -17.15,17.57 -10.71,0 -17.15,-7.14 -17.15,-17.57z"/>
  <polygon class="fil1" points="507.98,124.7 528.98,124.7 528.98,18.47 507.98,18.47 "/>
  <path class="fil1" d="M586.84 125.41l19.66 0 0 -35.19c0,-23.08 -6.69,-35.76 -31.63,-35.76 -11.25,0 -22.65,3.71 -30.49,11.11l11.4 11.69c4.56,-5.13 10.4,-8.27 17.38,-8.27 7.41,0 13.68,4.85 13.68,12.4 -17.81,0 -46.87,0.43 -46.87,24.36 0,13.96 11.68,21.37 24.64,21.37 8.7,0 17.24,-2.99 21.94,-10.4l0.29 0 0 8.69zm0 -30.34l0 4.55c0,8.55 -7.84,12.97 -16.24,12.97 -4.7,0 -10.12,-2.42 -10.12,-7.55 0,-9.4 14.54,-9.97 21.09,-9.97l5.27 0z"/>
  <path class="fil1" d="M692.17 18l-21.21 0 0 45.52 -0.28 0c-4.81,-6.64 -13,-9.05 -21.77,-9.05 -19.51,0 -31.38,17.53 -31.38,36.62 0,20.78 13.43,35.48 33.78,35.48 9.62,0 17.82,-5.8 21.07,-10.74l0.28 0 0 9.04 19.51 0 0 -106.87zm-19.51 72.52c0,10.32 -6.36,17.39 -16.96,17.39 -10.61,0 -16.97,-7.07 -16.97,-17.39 0,-10.32 6.36,-17.39 16.97,-17.39 10.6,0 16.96,7.07 16.96,17.39z"/>
  <path class="fil2" d="M116.22 19.98c59.86,0 108.39,48.52 108.39,108.39 0,30.99 -13.01,58.94 -33.87,78.69l0 -31.12c8.79,-13.73 13.88,-30.06 13.88,-47.57 0,-44.67 -33.13,-81.6 -76.16,-87.56l0 122.61 -21.28 0 0 -123c-44.58,4.52 -79.37,42.17 -79.37,87.95 0,21.39 7.61,41.02 20.26,56.31l0 27.96c-24.54,-19.87 -40.24,-50.24 -40.24,-84.27 0,-59.87 48.53,-108.39 108.39,-108.39z"/>
  <path class="fil3" d="M69.77 73.89l21.29 0 0 134.38c8.08,2.44 16.66,3.75 25.54,3.75 19.99,0 38.43,-6.64 53.24,-17.83l0 23.85c-15.73,8.88 -33.89,13.96 -53.24,13.96 -16.79,0 -32.68,-3.82 -46.87,-10.63l0 -22.79 0.04 0.02 0 -124.71z"/>
  <path class="fil4" d="M458.77 210.14c0.65,0 1.21,0.25 1.68,0.75l4.68 5.08c-2.59,3.22 -5.77,5.68 -9.56,7.39 -3.79,1.71 -8.34,2.56 -13.65,2.56 -4.74,0 -9,-0.81 -12.79,-2.43 -3.78,-1.62 -7.03,-3.88 -9.71,-6.77 -2.68,-2.88 -4.73,-6.33 -6.16,-10.34 -1.43,-4.01 -2.15,-8.38 -2.15,-13.13 0,-4.8 0.8,-9.21 2.39,-13.2 1.59,-4 3.83,-7.43 6.72,-10.32 2.89,-2.89 6.35,-5.14 10.37,-6.75 4.03,-1.6 8.46,-2.4 13.32,-2.4 4.75,0 8.91,0.77 12.46,2.28 3.55,1.54 6.58,3.56 9.12,6.08l-3.98 5.52c-0.24,0.36 -0.53,0.66 -0.9,0.93 -0.37,0.26 -0.88,0.4 -1.53,0.4 -0.68,0 -1.37,-0.27 -2.08,-0.8 -0.71,-0.53 -1.61,-1.1 -2.7,-1.72 -1.09,-0.62 -2.46,-1.2 -4.12,-1.73 -1.67,-0.53 -3.79,-0.79 -6.35,-0.79 -3.01,0 -5.77,0.51 -8.29,1.56 -2.52,1.05 -4.68,2.55 -6.49,4.49 -1.82,1.94 -3.23,4.31 -4.25,7.09 -1.02,2.77 -1.53,5.91 -1.53,9.38 0,3.59 0.51,6.79 1.53,9.59 1.02,2.8 2.39,5.14 4.13,7.06 1.74,1.91 3.78,3.39 6.14,4.4 2.36,1.02 4.89,1.52 7.61,1.52 1.62,0 3.09,-0.09 4.4,-0.26 1.31,-0.18 2.52,-0.46 3.63,-0.84 1.1,-0.39 2.15,-0.87 3.14,-1.48 0.98,-0.6 1.96,-1.35 2.93,-2.24 0.29,-0.26 0.6,-0.47 0.93,-0.63 0.32,-0.16 0.68,-0.25 1.06,-0.25zm49.6 -37.18c-0.32,0.65 -0.69,1.1 -1.12,1.37 -0.43,0.26 -0.94,0.4 -1.53,0.4 -0.59,0 -1.25,-0.24 -1.99,-0.7 -0.74,-0.45 -1.61,-0.95 -2.61,-1.51 -1,-0.56 -2.17,-1.08 -3.51,-1.54 -1.34,-0.45 -2.93,-0.67 -4.76,-0.67 -1.65,0 -3.08,0.19 -4.3,0.59 -1.22,0.39 -2.25,0.95 -3.09,1.66 -0.84,0.71 -1.48,1.55 -1.89,2.54 -0.41,0.98 -0.62,2.07 -0.62,3.25 0,1.49 0.43,2.74 1.27,3.74 0.84,1.01 1.94,1.86 3.33,2.57 1.38,0.71 2.96,1.34 4.73,1.9 1.77,0.56 3.58,1.16 5.42,1.8 1.84,0.62 3.64,1.35 5.41,2.19 1.77,0.84 3.34,1.9 4.73,3.19 1.39,1.28 2.51,2.85 3.35,4.7 0.83,1.85 1.25,4.11 1.25,6.76 0,2.89 -0.49,5.59 -1.48,8.11 -0.98,2.52 -2.43,4.71 -4.33,6.58 -1.9,1.87 -4.23,3.35 -6.97,4.42 -2.74,1.08 -5.88,1.61 -9.41,1.61 -2.04,0 -4.04,-0.21 -6.02,-0.6 -1.97,-0.4 -3.86,-0.96 -5.67,-1.7 -1.81,-0.74 -3.51,-1.62 -5.09,-2.65 -1.57,-1.03 -2.99,-2.18 -4.22,-3.45l3.44 -5.7c0.33,-0.42 0.73,-0.75 1.18,-1.03 0.46,-0.28 0.96,-0.43 1.52,-0.43 0.74,0 1.53,0.31 2.39,0.91 0.85,0.61 1.87,1.27 3.03,2.01 1.17,0.73 2.54,1.41 4.12,2.02 1.57,0.6 3.46,0.89 5.67,0.89 3.39,0 6.01,-0.81 7.87,-2.41 1.85,-1.61 2.78,-3.91 2.78,-6.91 0,-1.68 -0.41,-3.05 -1.25,-4.11 -0.84,-1.07 -1.96,-1.97 -3.34,-2.69 -1.39,-0.72 -2.97,-1.32 -4.74,-1.82 -1.76,-0.51 -3.56,-1.05 -5.39,-1.64 -1.83,-0.59 -3.62,-1.3 -5.39,-2.12 -1.77,-0.83 -3.35,-1.9 -4.73,-3.23 -1.39,-1.33 -2.49,-2.99 -3.33,-4.98 -0.84,-1.99 -1.27,-4.44 -1.27,-7.35 0,-2.33 0.47,-4.6 1.4,-6.81 0.93,-2.21 2.28,-4.17 4.07,-5.88 1.78,-1.71 3.96,-3.08 6.55,-4.11 2.6,-1.03 5.56,-1.55 8.89,-1.55 3.77,0 7.25,0.59 10.43,1.78 3.19,1.18 5.9,2.85 8.14,4.98l-2.92 5.62z"/>
 </g>
</svg>
