<?xml version="1.0" encoding="UTF-8"?>
<!DOCTYPE svg PUBLIC "-//W3C//DTD SVG 1.1//EN" "http://www.w3.org/Graphics/SVG/1.1/DTD/svg11.dtd">
<!-- Creator: CorelDRAW -->
<svg xmlns="http://www.w3.org/2000/svg" xml:space="preserve" width="10.1849in" height="6.48497in" style="shape-rendering:geometricPrecision; text-rendering:geometricPrecision; image-rendering:optimizeQuality; fill-rule:evenodd; clip-rule:evenodd"
viewBox="0 0 10.1783 6.48078"
 xmlns:xlink="http://www.w3.org/1999/xlink">
 <defs>
  <style type="text/css">
   <![CDATA[
    .fil1 {fill:#1F1A17}
    .fil0 {fill:#1B91BF}
    .fil2 {fill:#1B91BF;fill-rule:nonzero}
   ]]>
  </style>
 </defs>
 <g id="Layer_x0020_1">
  <metadata id="CorelCorpID_0Corel-Layer"/>
  <g id="_349543896">
   <path id="_349545336" class="fil0" d="M4.22281 0.0582183c0,0 -0.00287216,-0.0334429 0.0331361,-0.0363702l0.278442 -0.00146755 0.251672 -0.00331282 0.694968 -0.00550038c0,0 0.768944,-0.0254166 1.0602,0.47151 0,0 0.225901,0.387525 0.0828952,0.911489 0,0 -0.106246,0.422943 -0.534847,0.58847l0.743374 1.31109 -0.830538 0.00294298 -0.628188 -1.18107 -0.409593 0.00180198 0 1.18183 -0.570706 0.00633449 -0.347818 0.00478431 -0.0541067 -0.000633449c0,0 -0.282455,0.00720007 -0.334067,-0.333886l-0.000688531 -0.467544 -0.418214 0 0.176524 -0.172255 -0.176524 -0.172247 0.418214 0 0 -1.37257 0 -0.628428c0,0 -0.00720007,-0.0728781 0.0603979,-0.130671 0,0 0.027557,-0.0224225 0.0568215,-0.0317275 0,0 0.0327347,-0.00879353 0.0304331,0.0323334 -0.00229773,0.0411309 0,2.13107 0,2.13107l0.135243 0 0 0.344502 -0.135243 0 0 0.434593c0,0 -0.0121457,0.196837 0.188878,0.224717 0,0 0.121063,0.015128 0.196766,-0.0960245 0,0 0.0324869,-0.0443375 0.0325301,-0.107808l4.32791e-005 -0.0923261 0 -1.30252c0,0 0,-1.51438 0,-1.51111zm0.739927 0.542917l0 0.923072 0.440207 -0.00123936c0,0 0.472612,0.0113352 0.534808,-0.380864 0,0 0.0720125,-0.33404 -0.175575,-0.463271 0,0 -0.122366,-0.0769778 -0.377248,-0.0773634 0.254882,0.000385577 -0.422192,-0.000334429 -0.422192,-0.000334429z"/>
   <path id="_349545792" class="fil0" d="M3.98927 3.0282c0,0 3.93446e-006,0.0192238 0.019814,0.0225878 0,0 0.0237091,0.00275019 0.0258809,-0.0225878l0 -1.86065 0 -1.04894c0,0 0.00148723,-0.0130231 -0.010084,-0.0208487 0,0 -0.00762106,-0.00646432 -0.0201051,-0.00273839 0,0 -0.0130545,0.00332462 -0.0154074,0.0194913l-8.65582e-005 0.00131805c0,0 -1.18034e-005,2.9122 -1.18034e-005,2.91237z"/>
   <path id="_349544136" class="fil0" d="M4.1109 2.98891c0,0 0.0383492,0.000542956 0.0456988,-0.0426338l0 -1.92448 0 -0.905139c0,0 -8.26237e-005,-0.0211084 -0.0228592,-0.0228592 0,0 -0.0203923,-0.000365905 -0.022812,0.021734l-2.75412e-005 2.16092 0 0.712457z"/>
   <path id="_349539336" class="fil0" d="M3.91319 2.98872c0,0 -0.0383571,0.000542956 -0.0457067,-0.0426338l0 -0.393576 0.0457067 0 0 0.43621zm-0.0457067 -0.867911l0 -1.0992 0 -0.905139c0,0 8.26237e-005,-0.0211084 0.0228632,-0.0228592 0,0 0.0203963,-0.000365905 0.022812,0.021734l2.75412e-005 2.00546 -0.0457027 0z"/>
  </g>
  <path class="fil1" d="M1.51278 5.28009l-0.193493 0c-0.0107647,-0.101336 -0.0538353,-0.191907 -0.12857,-0.271395 -0.0661855,-0.0699862 -0.152008,-0.125407 -0.25683,-0.166573 -0.0832847,0.00981649 -0.161821,0.0145654 -0.235293,0.0145654 -0.106089,0 -0.203943,-0.00664924 -0.293243,-0.0199477l0.0360987 -0.190011c0.0798027,0.0120355 0.165306,0.0180513 0.257145,0.0180513 0.104822,0 0.215978,-0.0132985 0.332832,-0.0398994 0.161824,-0.0361026 0.244476,-0.0874041 0.247962,-0.15359 0.0047489,-0.0712531 0.00728269,-0.167211 0.00728269,-0.287865 0,-0.0361026 -0.0012669,-0.0627035 -0.003482,-0.079488 -0.00982042,-0.0639665 -0.0845556,-0.111153 -0.224528,-0.141239 -0.0927865,-0.0193143 -0.19476,-0.028816 -0.305912,-0.028816 -0.112105,0 -0.220727,0.0120355 -0.325549,0.0361026 -0.156757,0.0348318 -0.235293,0.0880376 -0.235293,0.159291l0 1.15081 -0.191907 0 0 -1.14195c0,-0.174808 0.111153,-0.291343 0.333465,-0.348979 0.121921,-0.0313537 0.264427,-0.047186 0.427519,-0.047186 0.13902,0 0.253659,0.0101312 0.34423,0.0307164 0.242894,0.0532018 0.364182,0.162458 0.364182,0.32745 0,0.0398994 0,0.100388 0,0.181139 0,0.0807549 0,0.141239 0,0.180824 0,0.125407 -0.0813883,0.231811 -0.244161,0.318581 0.17829,0.153275 0.274248,0.31953 0.287546,0.499405zm8.54847 -1.02985c-0.0639704,0.171326 -0.131423,0.330617 -0.202676,0.477872 -0.180824,0.372731 -0.338848,0.559256 -0.474071,0.559256 -0.12667,0 -0.265376,-0.14314 -0.416117,-0.429734 -0.0918382,-0.170374 -0.178609,-0.373998 -0.260627,-0.610877l0.180824 -0.0652373c0.0639704,0.170374 0.13459,0.33378 0.211859,0.489589 0.112105,0.228643 0.206791,0.368297 0.28406,0.418969 0.076006,-0.0566877 0.170059,-0.197294 0.282479,-0.421818 0.0747391,-0.150741 0.146307,-0.31288 0.215345,-0.48674l0.178924 0.0687193zm-1.57453 0.297048l0 0.732798 -0.190011 0 0 -0.732798c0,-0.0604884 -0.0620662,-0.107989 -0.186206,-0.14314 -0.10387,-0.0288199 -0.221994,-0.0433853 -0.35468,-0.0433853 -0.131742,0 -0.249229,0.0145654 -0.352784,0.0433853 -0.124455,0.0351505 -0.186525,0.0826513 -0.186525,0.14314l0 0.358481c0,0.0614366 0.0614366,0.109571 0.184625,0.144725 0.103555,0.028816 0.221994,0.0433853 0.354684,0.0433853 0.103551,0 0.202039,-0.00855352 0.294829,-0.0256527l0.0398994 0.190326c-0.102603,0.0193182 -0.214074,0.028816 -0.334728,0.028816 -0.486107,0 -0.729316,-0.127303 -0.729316,-0.381914l0 -0.358166c0,-0.253344 0.243209,-0.380018 0.729316,-0.380018 0.48737,0 0.730897,0.126674 0.730897,0.380018zm-1.77848 0.732798l-0.191911 0 0 -0.709364c0,-0.0604845 -0.0626996,-0.107989 -0.188107,-0.14314 -0.105137,-0.0275491 -0.223895,-0.041485 -0.35658,-0.041485 -0.133642,0 -0.252715,0.0139359 -0.356266,0.041485 -0.126674,0.0351505 -0.190011,0.0826552 -0.190011,0.14314l0 0.709364 -0.191907 0 0 -1.53812 0.191907 0 0 0.542791c0.164044,-0.0604884 0.346134,-0.0905713 0.546591,-0.0905713 0.490856,0 0.736284,0.125403 0.736284,0.376532l0 0.709364zm-1.75726 0.0905713c0,0.247328 -0.242575,0.370831 -0.727415,0.370831 -0.119387,0 -0.230544,-0.00949779 -0.332832,-0.028816l0.0395846 -0.184625c0.0918382,0.0167844 0.189692,0.025334 0.293247,0.025334 0.131423,0 0.248595,-0.0145693 0.351198,-0.0433853 0.125407,-0.0338836 0.188111,-0.0801214 0.188111,-0.139339l0 -0.832552c0,-0.0592215 -0.0620701,-0.106089 -0.186525,-0.141239 -0.103555,-0.027553 -0.221361,-0.041485 -0.352784,-0.041485 -0.13269,0 -0.250495,0.0139319 -0.35278,0.041485 -0.124459,0.0351505 -0.186525,0.0820178 -0.186525,0.141239l0 0.351198c0,0.0592176 0.0614327,0.105455 0.184625,0.139339 0.102603,0.028816 0.220723,0.0433853 0.35468,0.0433853 0.102607,0 0.199827,-0.00791614 0.291347,-0.0234337l0.0398994 0.182724c-0.102603,0.0193182 -0.213126,0.028816 -0.331246,0.028816 -0.484836,0 -0.727415,-0.123503 -0.727415,-0.370831l0 -0.351198c0,-0.247328 0.242579,-0.370835 0.727415,-0.370835 0.48484,0 0.727415,0.123507 0.727415,0.370835l0 0.832552zm-1.72464 -0.823369l0 0.732798 -0.190011 0 0 -0.732798c0,-0.0604884 -0.0620662,-0.107989 -0.186206,-0.14314 -0.10387,-0.0288199 -0.221994,-0.0433853 -0.35468,-0.0433853 -0.131742,0 -0.249229,0.0145654 -0.352784,0.0433853 -0.124455,0.0351505 -0.186525,0.0826513 -0.186525,0.14314l0 0.358481c0,0.0614366 0.0614366,0.109571 0.184625,0.144725 0.103555,0.028816 0.221994,0.0433853 0.354684,0.0433853 0.103551,0 0.202039,-0.00855352 0.294829,-0.0256527l0.0398994 0.190326c-0.102603,0.0193182 -0.214074,0.028816 -0.334728,0.028816 -0.486107,0 -0.729316,-0.127303 -0.729316,-0.381914l0 -0.358166c0,-0.253344 0.243209,-0.380018 0.729316,-0.380018 0.48737,0 0.730897,0.126674 0.730897,0.380018z"/>
  <path class="fil2" d="M5.44176 6.44372l-0.187048 -0.574381c-0.00352921,-0.0123542 -0.0132355,-0.0185313 -0.0255858,-0.0185313l-0.141169 0c-0.0123542,0 -0.0220605,0.00617711 -0.0255898,0.0185313l-0.187048 0.574381c-0.00529185,0.0158795 0.00264789,0.0247045 0.0185313,0.0247045l0.10852 0c0.0123542,0 0.0211753,-0.00529579 0.0247045,-0.0185274l0.0232369 -0.078528 0.216458 0 0.023233 0.078528c0.00352921,0.0132316 0.0123542,0.0185274 0.0247045,0.0185274l0.108524 0c0.0158834,0 0.0238232,-0.008825 0.0185274,-0.0247045zm-0.352331 -0.204694l0.0691128 -0.233813 0.0691128 0.233813 -0.138226 0zm0.875544 0.241753c0.14205,0 0.262928,-0.0899969 0.297335,-0.218815 0.00352921,-0.0141169 -0.00441053,-0.0229379 -0.0194087,-0.0229379l-0.104114 0c-0.0123503,0 -0.0194087,0.00617317 -0.0247045,0.0176461 -0.0247045,0.0538195 -0.0820532,0.0864638 -0.149108,0.0864638 -0.109406,0 -0.17999,-0.0732282 -0.17999,-0.183519 0,-0.110287 0.0705843,-0.183519 0.17999,-0.183519 0.0670551,0 0.124404,0.0326442 0.149108,0.0864677 0.00529579,0.011469 0.0123542,0.0176461 0.0247045,0.0176461l0.104114 0c0.0149982,0 0.0229379,-0.00970632 0.0194087,-0.0247045 -0.0361735,-0.128818 -0.156167,-0.217049 -0.297335,-0.217049 -0.186167,0 -0.321158,0.139402 -0.321158,0.321158 0,0.181756 0.134991,0.321162 0.321158,0.321162zm1.06671 -0.0370587l-0.187048 -0.574381c-0.00352921,-0.0123542 -0.0132355,-0.0185313 -0.0255858,-0.0185313l-0.141169 0c-0.0123542,0 -0.0220605,0.00617711 -0.0255898,0.0185313l-0.187048 0.574381c-0.00529185,0.0158795 0.00264789,0.0247045 0.0185313,0.0247045l0.10852 0c0.0123542,0 0.0211753,-0.00529579 0.0247045,-0.0185274l0.0232369 -0.078528 0.216458 0 0.023233 0.078528c0.00352921,0.0132316 0.0123542,0.0185274 0.0247045,0.0185274l0.108524 0c0.0158834,0 0.0238232,-0.008825 0.0185274,-0.0247045zm-0.352331 -0.204694l0.0691128 -0.233813 0.0691128 0.233813 -0.138226 0zm0.876425 -0.388217l-0.123522 0 -0.119112 0c-0.0141169,0 -0.0220566,0.00794368 -0.0220566,0.0220605l0 0.573499c0,0.0141169 0.00793975,0.0220566 0.0220566,0.0220566l0.0220605 0 0.220574 0c0.170288,0 0.299987,-0.13411 0.299987,-0.308808 0,-0.174698 -0.1297,-0.308808 -0.299987,-0.308808zm0 0.48174l-0.123522 0 0 -0.345863 0.123522 0c0.0970553,0 0.16411,0.0670551 0.16411,0.172931 0,0.105876 -0.0670551,0.172931 -0.16411,0.172931zm0.926424 0l-0.207342 0 0 -0.110287 0.180875 0c0.0141169,0 0.0220566,-0.00793975 0.0220566,-0.0220566l0 -0.0882303c0,-0.0141169 -0.00793975,-0.0220605 -0.0220566,-0.0220605l-0.180875 0 0 -0.103229 0.202932 0c0.0141169,0 0.0220566,-0.00793975 0.0220566,-0.0220566l0 -0.0917596c0,-0.0141169 -0.00793975,-0.0220605 -0.0220566,-0.0220605l-0.202932 0 -0.119112 0c-0.0141169,0 -0.0220566,0.00794368 -0.0220566,0.0220605l0 0.573499c0,0.0141169 0.00793975,0.0220566 0.0220566,0.0220566l0.0220605 0 0.304394 0c0.0141169,0 0.0220566,-0.00793975 0.0220566,-0.0220566l0 -0.0917596c0,-0.0141169 -0.00793975,-0.0220605 -0.0220566,-0.0220605zm0.895543 -0.48174l-0.0467611 0 -0.0714656 0c-0.0123542,0 -0.0211753,0.00529579 -0.0255858,0.0167647l-0.142935 0.33969 -0.142935 -0.33969c-0.00441053,-0.011469 -0.0132355,-0.0167647 -0.0255858,-0.0167647l-0.0211753 0 -0.0970553 0c-0.0141169,0 -0.0220566,0.00794368 -0.0220566,0.0220605l0 0.573499c0,0.0141169 0.00793975,0.0220566 0.0220566,0.0220566l0.0970553 0c0.0141169,0 0.0220566,-0.00793975 0.0220566,-0.0220566l0 -0.3566 0.112054 0.265722c0.00441053,0.011469 0.0132355,0.0167647 0.0255858,0.0167647l0.0599966 0c0.0123542,0 0.0211753,-0.00529579 0.0255898,-0.0167647l0.112054 -0.265722 0 0.3566c0,0.0141169 0.00793975,0.0220566 0.0220566,0.0220566l0.0970514 0c0.0141208,0 0.0220605,-0.00793975 0.0220605,-0.0220566l0 -0.573499c0,-0.0141169 -0.00793975,-0.0220605 -0.0220605,-0.0220605zm0.781731 0l-0.112939 0c-0.0123503,0 -0.02029,0.00529579 -0.0255858,0.0158834l-0.100581 0.192635 -0.100585 -0.192635c-0.00529579,-0.0105876 -0.0132355,-0.0158834 -0.0255858,-0.0158834l-0.112935 0c-0.0167647,0 -0.0238232,0.0105876 -0.0150021,0.0264711l0.183519 0.320718 0 0.248371c0,0.0141169 0.00794368,0.0220566 0.0220605,0.0220566l0.0970514 0c0.0141169,0 0.0220605,-0.00793975 0.0220605,-0.0220566l0 -0.248371 0.183519 -0.320718c0.00882107,-0.0158834 0.00176264,-0.0264711 -0.0149982,-0.0264711z"/>
 </g>
</svg>
