<svg height="512" viewBox="0 0 512 512" width="512" xmlns="http://www.w3.org/2000/svg"><g id="Line_stroke_cut_Ex" data-name="Line stroke cut Ex"><g><path d="m56 240a8 8 0 0 0 8 8h176a8 8 0 0 0 8-8v-96a8 8 0 0 0 -8-8h-58.7a27.836 27.836 0 0 0 2.7-12v-20a8 8 0 0 0 -8-8h-28a27.917 27.917 0 0 0 -20 8.423 27.917 27.917 0 0 0 -20-8.423h-28a8 8 0 0 0 -8 8v20a27.836 27.836 0 0 0 2.7 12h-10.7a8 8 0 0 0 -8 8zm16-40h32v32h-32zm48 32v-32h112v32zm112-48h-112v-32h112zm-84-72h20v12a12.013 12.013 0 0 1 -12 12h-20v-12a12.013 12.013 0 0 1 12-12zm-60 12v-12h20a12.013 12.013 0 0 1 12 12v12h-20a12.013 12.013 0 0 1 -12-12zm16 28v32h-32v-32z"/><path d="m392 56a8 8 0 0 0 -8-8h-76a28.032 28.032 0 0 0 -28 28v12a8 8 0 0 0 8 8h76a28.032 28.032 0 0 0 28-28zm-16 12a12.013 12.013 0 0 1 -12 12h-68v-4a12.013 12.013 0 0 1 12-12h68z"/><path d="m56 56h56v16h-56z"/><path d="m128 56h120v16h-120z"/><path d="m280 120h32v16h-32z"/><path d="m328 120h64v16h-64z"/><path d="m360 160h32v16h-32z"/><path d="m280 160h64v16h-64z"/><path d="m456.178 374.324a8.006 8.006 0 0 0 -.178 1.676v128h16v-127.152l8.394-39.172-15.645-3.352z"/><path d="m495.845 262.431-28.785-143.921a28.075 28.075 0 0 0 -27.46-22.51h-7.6v-62a18.021 18.021 0 0 0 -18-18h-380a18.021 18.021 0 0 0 -18 18v62h16v-62a2 2 0 0 1 2-2h380a2 2 0 0 1 2 2v236c0 .469-.1 2-1.395 2h-10.76l-61.6-77a8 8 0 0 0 -10.9-1.512l-9.507 6.791a67.949 67.949 0 0 0 -26.493 71.721h-261.345a2 2 0 0 1 -2-2v-158h-16v158a18.021 18.021 0 0 0 18 18h15.415l31.814 113.019a17.993 17.993 0 0 0 22.2 12.449l140.126-39.445-10.141 20.733a8 8 0 0 0 3.671 10.7l3.594 1.758a67.419 67.419 0 0 0 42.612 5.724l-6.758 13.817a8 8 0 0 0 3.671 10.7l3.594 1.758a68.128 68.128 0 0 0 68.2-4.893v69.68h16v-136a8.008 8.008 0 0 0 -1.183-4.188l-49.1-79.939c-.029-.046-.058-.093-.088-.139a51.95 51.95 0 0 1 13.516-70.434l3.342-2.388 59.268 74.088a8 8 0 0 0 6.247 3h14.605c9.754 0 17.395-7.906 17.395-18v-158h7.6a12.034 12.034 0 0 1 11.767 9.647l28.46 142.3-11.653 54.38 15.644 3.352 12-56a8.007 8.007 0 0 0 .027-3.248zm-244.472 132.033 12.841-26.256 61.967-17.443-8.909 18.213a52.008 52.008 0 0 1 -65.9 25.486zm100.627 18.836a52.08 52.08 0 0 1 -57.508 13.159l10.638-21.749a67.53 67.53 0 0 0 26.516-28.7l10.587-21.646 9.767 15.9zm-22.722-80.031-230.178 64.796a2 2 0 0 1 -2.468-1.382l-30.595-108.683h235.533q1.188 2.187 2.551 4.315z"/></g></g></svg>